<svg xmlns="http://www.w3.org/2000/svg" version="1.1" xmlns:xlink="http://www.w3.org/1999/xlink" xmlns:svgjs="http://svgjs.dev/svgjs" width="2000" height="2242" viewBox="0 0 2000 2242"><g transform="matrix(1,0,0,1,-3.114115860409015,0)"><svg viewBox="0 0 321 360" data-background-color="#0074d9" preserveAspectRatio="xMidYMid meet" height="2242" width="2000" xmlns="http://www.w3.org/2000/svg" xmlns:xlink="http://www.w3.org/1999/xlink"><g id="tight-bounds" transform="matrix(1,0,0,1,0.5001844044044219,0)"><svg viewBox="0 0 320 360" height="360" width="320"><g><svg></svg></g><g><svg viewBox="0 0 320 360" height="360" width="320"><g><path d="M294.684 112.125c-8.775-10.699-25.381-16.201-43-22.006-7.56-2.498-15.357-5.097-22.985-8.235-7.695-3.173-15.256-7.257-22.613-11.172-14.952-8.033-30.41-16.336-46.105-16.336-15.661 0-31.119 8.303-46.071 16.336-7.358 3.949-14.952 8.033-22.648 11.205-7.594 3.139-15.425 5.704-22.985 8.236-17.618 5.839-34.224 11.341-42.999 22.006-11.712 14.277-11.442 35.439-11.172 57.817 0.034 3.375 0.068 6.717 0.067 10.024 0 3.308-0.034 6.649-0.101 10.024-0.27 22.411-0.54 43.54 11.172 57.851 8.775 10.666 25.381 16.167 42.966 22.006 7.56 2.498 15.357 5.097 23.019 8.235 7.695 3.173 15.256 7.223 22.579 11.172 14.986 8.067 30.444 16.37 46.105 16.37 15.695 0 31.153-8.303 46.105-16.336 7.358-3.949 14.918-8.033 22.614-11.172 7.594-3.139 15.357-5.704 22.884-8.202 17.72-5.873 34.326-11.374 43.101-22.039 11.712-14.277 11.442-35.439 11.171-57.817-0.034-3.409-0.101-6.75-0.101-10.058 0-3.308 0.034-6.649 0.101-9.991 0.371-22.479 0.641-43.641-11.104-57.918zM305.552 103.215c-15.728-19.171-45.801-23.727-71.486-34.326-22.985-9.45-46.375-28.588-74.051-28.587-27.676 0-51.066 19.137-74.052 28.587-25.719 10.598-55.758 15.155-71.486 34.326-17.078 20.791-14.311 50.121-14.311 76.785 0 26.63-2.768 55.994 14.277 76.785 15.728 19.171 45.801 23.727 71.487 34.326 22.985 9.484 46.375 28.588 74.051 28.587 27.676 0 51.066-19.103 74.051-28.587 25.719-10.598 55.758-15.155 71.486-34.326 17.045-20.791 14.277-50.121 14.277-76.785 0.068-26.664 2.835-55.994-14.243-76.785zM309.872 189.923c0.304 23.221 0.574 45.059-12.083 60.483-9.518 11.577-26.664 17.281-44.822 23.289-7.56 2.498-15.29 5.063-22.715 8.134-7.493 3.071-14.952 7.088-22.175 10.969-15.458 8.303-31.355 16.842-48.062 16.842-16.707 0-32.604-8.539-47.995-16.808-7.257-3.915-14.75-7.932-22.243-11.003-7.527-3.105-15.256-5.67-22.748-8.134-18.192-6.008-35.338-11.712-44.823-23.289-12.623-15.391-12.353-37.262-12.083-60.415 0.034-3.375 0.101-6.683 0.101-9.991 0-3.308-0.034-6.615-0.067-9.991-0.304-23.154-0.574-45.025 12.083-60.415 9.518-11.577 26.664-17.247 44.822-23.289 7.527-2.498 15.256-5.063 22.749-8.134 7.493-3.105 14.986-7.122 22.242-11.003 15.391-8.269 31.322-16.842 47.995-16.842 16.673 0 32.604 8.539 47.995 16.808 7.257 3.915 14.75 7.932 22.243 11.003 7.493 3.105 15.256 5.637 22.715 8.134 18.158 6.008 35.338 11.712 44.822 23.289 12.657 15.425 12.387 37.262 12.083 60.416-0.034 3.409-0.101 6.717-0.101 9.99 0 3.308 0.034 6.615 0.067 9.957z" fill="#ffffff" fill-rule="nonzero" stroke="none" stroke-width="1" stroke-linecap="butt" stroke-linejoin="miter" stroke-miterlimit="10" stroke-dasharray="" stroke-dashoffset="0" font-family="none" font-weight="none" font-size="none" text-anchor="none" style="mix-blend-mode: normal" data-fill-palette-color="tertiary"></path></g><g transform="matrix(1,0,0,1,64,113.06636728147555)"><svg viewBox="0 0 192 133.8672654370489" height="133.8672654370489" width="192"><g><svg viewBox="0 0 192 133.8672654370489" height="133.8672654370489" width="192"><g><svg viewBox="0 0 192 133.8672654370489" height="133.8672654370489" width="192"><g id="textblocktransform"><svg viewBox="0 0 192 133.8672654370489" height="133.8672654370489" width="192" id="textblock"><g><svg viewBox="0 0 192 133.8672654370489" height="133.8672654370489" width="192"><g transform="matrix(1,0,0,1,0,0)"><svg width="192" viewBox="107.93 -37.989999999999995 243.55000000000007 166.22999999999996" height="133.8672654370489" data-palette-color="#0074d9"><svg></svg><svg></svg><svg></svg><svg></svg><g class="wordmark-text-0" data-fill-palette-color="quaternary" id="text-0"><path d="M107.93-3.32v0-32.52c0-0.113 0.053-0.21 0.16-0.29 0.107-0.08 0.273-0.137 0.5-0.17 0.227-0.033 0.427-0.06 0.6-0.08 0.167-0.013 0.41-0.023 0.73-0.03 0.313-0.013 0.53-0.02 0.65-0.02v0h19.82c1.627 0 3.163 0.257 4.61 0.77 1.453 0.513 2.74 1.26 3.86 2.24 1.127 0.973 2.013 2.233 2.66 3.78 0.653 1.547 0.98 3.29 0.98 5.23v0c0 1.427-0.167 2.737-0.5 3.93-0.333 1.187-0.773 2.2-1.32 3.04-0.547 0.833-1.213 1.583-2 2.25-0.793 0.673-1.6 1.213-2.42 1.62-0.82 0.407-1.727 0.75-2.72 1.03-0.993 0.287-1.91 0.497-2.75 0.63-0.833 0.127-1.717 0.223-2.65 0.29v0h-4.68c-0.133 2.553-0.2 5.417-0.2 8.59v0 2.74c-0.047 0.587-0.323 0.88-0.83 0.88v0h-13.87c-0.42-1.127-0.63-2.43-0.63-3.91zM121.7-20.41v0l0.78 1.07c0.667 0 1.307-0.047 1.92-0.14 0.607-0.1 1.203-0.273 1.79-0.52 0.587-0.24 1.09-0.553 1.51-0.94 0.427-0.38 0.77-0.867 1.03-1.46 0.26-0.593 0.39-1.263 0.39-2.01v0c0-0.573-0.077-1.083-0.23-1.53-0.153-0.447-0.34-0.813-0.56-1.1-0.22-0.287-0.523-0.533-0.91-0.74-0.38-0.213-0.737-0.373-1.07-0.48-0.333-0.107-0.757-0.187-1.27-0.24-0.513-0.06-0.937-0.093-1.27-0.1-0.333-0.007-0.76-0.01-1.28-0.01v0c-0.553 0.26-0.83 2.993-0.83 8.2zM137.76 0v0c1.013-3.727 2.13-7.51 3.35-11.35 1.22-3.84 2.737-8.433 4.55-13.78 1.813-5.347 3.053-9.047 3.72-11.1v0c0.2-0.327 0.33-0.523 0.39-0.59v0h4.11c0.96 0 2.373-0.017 4.24-0.05 1.873-0.027 3.29-0.04 4.25-0.04v0h4.1c0.247 0 0.45 0.003 0.61 0.01 0.167 0.007 0.363 0.027 0.59 0.06 0.227 0.033 0.41 0.083 0.55 0.15 0.14 0.06 0.257 0.157 0.35 0.29 0.1 0.127 0.15 0.28 0.15 0.46v0l11.25 35.67c0 0.327-0.117 0.55-0.35 0.67-0.233 0.127-0.677 0.19-1.33 0.19v0h-2.25c-0.647 0-1.613 0.007-2.9 0.02-1.287 0.013-2.257 0.02-2.91 0.02v0c-0.193 0-0.587 0.013-1.18 0.04-0.593 0.027-1.093 0.037-1.5 0.03-0.407-0.013-0.86-0.04-1.36-0.08-0.493-0.04-0.89-0.13-1.19-0.27-0.3-0.133-0.493-0.317-0.58-0.55v0-1.61c-0.16-0.813-0.443-1.56-0.85-2.24-0.407-0.687-0.84-1.03-1.3-1.03v0h-8.39l-1.27 5.18c-0.18 0.387-1.093 0.58-2.74 0.58v0h-1.95c-0.7 0-1.743 0.027-3.13 0.08-1.38 0.047-2.42 0.07-3.12 0.07v0h-0.68c-0.26 0-0.673 0.007-1.24 0.02-0.56 0.02-0.993 0.03-1.3 0.03v0c-0.133-0.133-0.363-0.427-0.69-0.88zM156.66-23.29l-1.95 8.47 0.68 1.15h1.61c1.3 0 2.493-0.077 3.58-0.23 1.08-0.16 1.62-0.41 1.62-0.75v0l-3.15-14.06c-0.293 0-0.687 0.553-1.18 1.66-0.5 1.107-0.903 2.36-1.21 3.76zM196.7 1.46v0c-1.92-0.08-3.647-0.247-5.18-0.5-1.527-0.247-3.003-0.653-4.43-1.22-1.42-0.56-2.617-1.267-3.59-2.12-0.967-0.853-1.77-1.947-2.41-3.28-0.647-1.34-1.043-2.887-1.19-4.64v0c0-0.313 0.163-0.493 0.49-0.54v0c0.1 0.033 0.263 0.05 0.49 0.05v0c1.347 0 3.397-0.033 6.15-0.1 2.753-0.067 4.803-0.1 6.15-0.1v0c0.347 0 0.617 0.11 0.81 0.33 0.193 0.22 0.35 0.49 0.47 0.81 0.127 0.313 0.273 0.63 0.44 0.95 0.173 0.32 0.467 0.59 0.88 0.81 0.42 0.22 0.953 0.33 1.6 0.33v0c0.8 0 1.503-0.227 2.11-0.68 0.613-0.447 0.92-1.05 0.92-1.81v0c0-0.507-0.26-0.973-0.78-1.4-0.52-0.42-1.207-0.763-2.06-1.03-0.86-0.273-1.677-0.503-2.45-0.69-0.773-0.187-1.567-0.347-2.38-0.48-0.813-0.14-1.283-0.227-1.41-0.26v0c-3.96-1.073-6.807-2.41-8.54-4.01-1.733-1.593-2.6-3.773-2.6-6.54v0c0-1.953 0.36-3.707 1.08-5.26 0.713-1.553 1.65-2.823 2.81-3.81 1.153-0.987 2.52-1.807 4.1-2.46 1.58-0.66 3.173-1.127 4.78-1.4 1.613-0.267 3.283-0.4 5.01-0.4v0c4.573 0 8.22 0.847 10.94 2.54v0c0.987 0.993 1.713 1.747 2.18 2.26 0.467 0.513 0.913 1.11 1.34 1.79 0.433 0.687 0.737 1.36 0.91 2.02 0.167 0.66 0.283 1.47 0.35 2.43v0l-0.88 0.88c-3.333 0.127-7.077 0.19-11.23 0.19v0c-0.52 0-0.94-0.057-1.26-0.17-0.313-0.113-0.523-0.26-0.63-0.44-0.107-0.18-0.213-0.367-0.32-0.56-0.107-0.193-0.203-0.38-0.29-0.56-0.093-0.18-0.28-0.327-0.56-0.44-0.287-0.113-0.667-0.17-1.14-0.17v0c-0.127 0-0.333 0.023-0.62 0.07-0.287 0.047-0.62 0.123-1 0.23-0.387 0.107-0.717 0.27-0.99 0.49-0.28 0.22-0.42 0.477-0.42 0.77v0c0 0.36 0.183 0.687 0.55 0.98 0.367 0.293 0.753 0.503 1.16 0.63 0.407 0.133 0.913 0.277 1.52 0.43 0.6 0.153 0.973 0.253 1.12 0.3v0c3.547 0.9 5.663 1.453 6.35 1.66v0c3.56 1.127 6.083 2.6 7.57 4.42v0c1.367 1.693 2.05 3.817 2.05 6.37v0c0 1.547-0.2 2.957-0.6 4.23-0.4 1.267-0.927 2.34-1.58 3.22-0.647 0.88-1.46 1.66-2.44 2.34-0.973 0.687-1.96 1.233-2.96 1.64-1 0.407-2.137 0.75-3.41 1.03-1.267 0.273-2.433 0.47-3.5 0.59-1.067 0.127-2.227 0.22-3.48 0.28zM232.93 1.46v0c-1.92-0.08-3.647-0.247-5.18-0.5-1.527-0.247-3.003-0.653-4.43-1.22-1.42-0.56-2.617-1.267-3.59-2.12-0.967-0.853-1.77-1.947-2.41-3.28-0.647-1.34-1.043-2.887-1.19-4.64v0c0-0.313 0.163-0.493 0.49-0.54v0c0.1 0.033 0.263 0.05 0.49 0.05v0c1.353 0 3.403-0.033 6.15-0.1 2.753-0.067 4.803-0.1 6.15-0.1v0c0.347 0 0.617 0.11 0.81 0.33 0.193 0.22 0.353 0.49 0.48 0.81 0.12 0.313 0.263 0.63 0.43 0.95 0.173 0.32 0.467 0.59 0.88 0.81 0.42 0.22 0.953 0.33 1.6 0.33v0c0.8 0 1.503-0.227 2.11-0.68 0.613-0.447 0.92-1.05 0.92-1.81v0c0-0.507-0.26-0.973-0.78-1.4-0.52-0.42-1.207-0.763-2.06-1.03-0.86-0.273-1.677-0.503-2.45-0.69-0.773-0.187-1.567-0.347-2.38-0.48-0.813-0.14-1.283-0.227-1.41-0.26v0c-3.953-1.073-6.797-2.41-8.53-4.01-1.733-1.593-2.6-3.773-2.6-6.54v0c0-1.953 0.357-3.707 1.07-5.26 0.713-1.553 1.65-2.823 2.81-3.81 1.153-0.987 2.52-1.807 4.1-2.46 1.58-0.66 3.173-1.127 4.78-1.4 1.613-0.267 3.283-0.4 5.01-0.4v0c4.573 0 8.22 0.847 10.94 2.54v0c0.993 0.993 1.72 1.747 2.18 2.26 0.467 0.513 0.913 1.11 1.34 1.79 0.433 0.687 0.737 1.36 0.91 2.02 0.167 0.66 0.283 1.47 0.35 2.43v0l-0.88 0.88c-3.333 0.127-7.077 0.19-11.23 0.19v0c-0.52 0-0.94-0.057-1.26-0.17-0.313-0.113-0.523-0.26-0.63-0.44-0.107-0.18-0.213-0.367-0.32-0.56-0.107-0.193-0.203-0.38-0.29-0.56-0.087-0.18-0.273-0.327-0.56-0.44-0.287-0.113-0.667-0.17-1.14-0.17v0c-0.127 0-0.333 0.023-0.62 0.07-0.287 0.047-0.62 0.123-1 0.23-0.38 0.107-0.71 0.27-0.99 0.49-0.273 0.22-0.41 0.477-0.41 0.77v0c0 0.36 0.18 0.687 0.54 0.98 0.367 0.293 0.753 0.503 1.16 0.63 0.407 0.133 0.913 0.277 1.52 0.43 0.6 0.153 0.973 0.253 1.12 0.3v0c3.547 0.9 5.663 1.453 6.35 1.66v0c3.567 1.127 6.09 2.6 7.57 4.42v0c1.367 1.693 2.05 3.817 2.05 6.37v0c0 1.547-0.2 2.957-0.6 4.23-0.4 1.267-0.927 2.34-1.58 3.22-0.647 0.88-1.46 1.66-2.44 2.34-0.973 0.687-1.96 1.233-2.96 1.64-1 0.407-2.137 0.75-3.41 1.03-1.267 0.273-2.433 0.47-3.5 0.59-1.067 0.127-2.227 0.22-3.48 0.28zM269.16 0.63h-15.77c0.067-4.733 0.18-8.2 0.34-10.4v0c0-6.833 0.097-13.767 0.29-20.8v0c-0.06-1.367-0.09-2.373-0.09-3.02v0-0.74c-0.067-0.713-0.1-1.297-0.1-1.75v0c0-0.313 0.147-0.59 0.44-0.83v0c2.667 0.193 6.733 0.29 12.2 0.29v0c1.307 0 2.203-0.033 2.69-0.1v0zM272.53-18.36v0-2.68c0.16-2.28 0.657-4.36 1.49-6.24 0.827-1.88 1.88-3.463 3.16-4.75 1.28-1.287 2.757-2.373 4.43-3.26 1.68-0.887 3.433-1.533 5.26-1.94 1.833-0.407 3.727-0.61 5.68-0.61v0c1.073 0 2.193 0.09 3.36 0.27 1.16 0.18 2.39 0.463 3.69 0.85 1.307 0.393 2.557 0.967 3.75 1.72 1.2 0.76 2.19 1.653 2.97 2.68v0c1.607 1.967 2.773 4.027 3.5 6.18 0.727 2.16 1.09 4.557 1.09 7.19v0c0.047 5.507-1.16 9.937-3.62 13.29v0l-1.07 1.46c-0.947 1.3-2.297 2.387-4.05 3.26-1.76 0.873-3.52 1.477-5.28 1.81-1.753 0.333-3.527 0.5-5.32 0.5v0c-2.1 0-4.037-0.213-5.81-0.64-1.773-0.42-3.303-0.99-4.59-1.71-1.287-0.713-2.433-1.583-3.44-2.61-1.007-1.027-1.833-2.11-2.48-3.25-0.64-1.133-1.17-2.37-1.59-3.71-0.413-1.333-0.703-2.633-0.87-3.9-0.173-1.273-0.26-2.577-0.26-3.91zM291.96-28.03v0c-0.667 0-1.263 0.157-1.79 0.47-0.533 0.307-0.967 0.68-1.3 1.12-0.333 0.44-0.62 1.03-0.86 1.77-0.247 0.74-0.427 1.407-0.54 2-0.113 0.593-0.203 1.343-0.27 2.25-0.067 0.9-0.103 1.6-0.11 2.1-0.007 0.493-0.01 1.13-0.01 1.91v0c0 0.753 0.027 1.467 0.08 2.14 0.06 0.673 0.183 1.39 0.37 2.15 0.187 0.753 0.43 1.413 0.73 1.98 0.307 0.56 0.723 1.03 1.25 1.41 0.527 0.387 1.133 0.593 1.82 0.62v0c0.713 0 1.347-0.117 1.9-0.35 0.553-0.233 1.017-0.533 1.39-0.9 0.373-0.367 0.693-0.86 0.96-1.48 0.26-0.62 0.457-1.213 0.59-1.78 0.14-0.573 0.247-1.283 0.32-2.13 0.073-0.847 0.12-1.573 0.14-2.18 0.013-0.613 0.02-1.383 0.02-2.31v0c0-0.68-0.02-1.313-0.06-1.9-0.04-0.587-0.11-1.24-0.21-1.96-0.1-0.713-0.263-1.343-0.49-1.89-0.227-0.547-0.503-1.06-0.83-1.54-0.327-0.48-0.753-0.85-1.28-1.11-0.527-0.26-1.133-0.39-1.82-0.39zM315.11 0.68l-1.08-0.58v-11.04c-0.033-4.033 0.097-11.73 0.39-23.09v0-2.01c0-0.353 0.067-0.563 0.2-0.63v0h16.8c0.16 0 0.487 0.62 0.98 1.86 0.5 1.233 1.103 2.823 1.81 4.77 0.707 1.947 1.207 3.283 1.5 4.01v0l3.42 8.94v-9.47c0-0.813 0.02-2.307 0.06-4.48 0.04-2.173 0.053-3.87 0.04-5.09v0c0-0.46 1.3-0.69 3.9-0.69v0c0.813 0 1.93 0.017 3.35 0.05 1.413 0.033 2.283 0.05 2.61 0.05v0h1.86c0.26 0 0.39 0.05 0.39 0.15v0c0.093 4.52 0.14 10.997 0.14 19.43v0 16.94c-0.113 0.427-0.633 0.64-1.56 0.64v0h-0.63c-0.847 0-2.093 0.017-3.74 0.05-1.64 0.033-2.883 0.05-3.73 0.05v0h-7.18c-0.227-0.08-0.7-1.107-1.42-3.08v0c-0.767-2.133-1.907-5.217-3.42-9.25-1.513-4.04-2.357-6.293-2.53-6.76v0c0 0.96-0.01 2.39-0.03 4.29-0.013 1.907-0.02 3.34-0.02 4.3v0c0 0.713 0.017 1.787 0.05 3.22 0.027 1.433 0.04 2.507 0.04 3.22v0 3.08c0 0.747-0.323 1.12-0.97 1.12v0zM351.34-36.52v-0.1z" fill="#0074d9" fill-rule="nonzero" stroke="none" stroke-width="1" stroke-linecap="butt" stroke-linejoin="miter" stroke-miterlimit="10" stroke-dasharray="" stroke-dashoffset="0" font-family="none" font-weight="none" font-size="none" text-anchor="none" style="mix-blend-mode: normal" data-fill-palette-color="quaternary" opacity="1"></path><path d="M176.28 39.03v0-32.62c0-0.553 1.27-0.83 3.81-0.83v0c0.28 0 0.673 0.01 1.18 0.03 0.513 0.013 0.87 0.02 1.07 0.02v0c1.28 0 3.197-0.023 5.75-0.07 2.547-0.047 4.47-0.07 5.77-0.07v0c0.893 0 2.223 0.017 3.99 0.05 1.767 0.027 3.14 0.04 4.12 0.04v0c0.127 0 0.32-0.007 0.58-0.02 0.26-0.013 0.457-0.02 0.59-0.02v0c0.587 0 0.993 0.11 1.22 0.33 0.227 0.22 0.34 0.647 0.34 1.28v0 8.54c-0.947 0.08-1.93 0.133-2.95 0.16-1.027 0.027-2.33 0.047-3.91 0.06-1.58 0.02-2.567 0.03-2.96 0.03v0h-3.36c0 0.307-0.01 0.753-0.03 1.34-0.013 0.587-0.02 1.033-0.02 1.34v0 0.34c0.033 0.067 0.05 0.183 0.05 0.35v0c3.693-0.267 6.817-0.4 9.37-0.4v0c0.767 0 1.447 0.06 2.04 0.18 0.593 0.113 0.89 0.283 0.89 0.51v0 8.15c0 0.72-0.137 1.2-0.41 1.44-0.28 0.247-0.713 0.37-1.3 0.37v0c-0.127 0-0.363-0.017-0.71-0.05-0.34-0.033-0.607-0.05-0.8-0.05v0c-3.307 0.213-6.32 0.343-9.04 0.39v0c0 0.993 0.027 2.49 0.08 4.49 0.047 2.007 0.07 3.507 0.07 4.5v0 3.02c0 0.473-0.05 0.787-0.15 0.94-0.093 0.16-0.337 0.27-0.73 0.33v0c-1.56 0-3.87 0.017-6.93 0.05-3.06 0.033-5.37 0.05-6.93 0.05v0c-0.133-0.193-0.243-0.403-0.33-0.63-0.093-0.233-0.163-0.437-0.21-0.61-0.053-0.18-0.09-0.43-0.11-0.75-0.027-0.313-0.043-0.54-0.05-0.68-0.007-0.14-0.007-0.407 0-0.8 0.007-0.387 0.01-0.63 0.01-0.73zM205.29 24.09v0-2.68c0.16-2.28 0.653-4.36 1.48-6.24 0.833-1.88 1.89-3.463 3.17-4.75 1.273-1.287 2.75-2.373 4.43-3.26 1.673-0.887 3.427-1.533 5.26-1.94 1.833-0.407 3.723-0.61 5.67-0.61v0c1.08 0 2.2 0.09 3.36 0.27 1.167 0.18 2.4 0.463 3.7 0.85 1.3 0.393 2.55 0.967 3.75 1.72 1.193 0.76 2.18 1.653 2.96 2.68v0c1.613 1.967 2.783 4.027 3.51 6.18 0.72 2.16 1.08 4.557 1.08 7.19v0c0.053 5.507-1.15 9.937-3.61 13.29v0l-1.07 1.46c-0.947 1.3-2.3 2.387-4.06 3.26-1.753 0.873-3.51 1.477-5.27 1.81-1.76 0.333-3.533 0.5-5.32 0.5v0c-2.1 0-4.037-0.213-5.81-0.64-1.773-0.42-3.303-0.99-4.59-1.71-1.287-0.713-2.433-1.583-3.44-2.61-1.013-1.027-1.84-2.11-2.48-3.25-0.647-1.133-1.177-2.37-1.59-3.71-0.413-1.333-0.707-2.633-0.88-3.9-0.167-1.273-0.25-2.577-0.25-3.91zM224.72 14.42v0c-0.667 0-1.267 0.157-1.8 0.47-0.527 0.307-0.957 0.68-1.29 1.12-0.333 0.44-0.623 1.03-0.87 1.77-0.24 0.74-0.417 1.407-0.53 2-0.113 0.593-0.203 1.343-0.27 2.25-0.067 0.9-0.103 1.6-0.11 2.1-0.007 0.493-0.01 1.13-0.01 1.91v0c0 0.753 0.027 1.467 0.08 2.14 0.06 0.673 0.183 1.39 0.37 2.15 0.187 0.753 0.43 1.413 0.73 1.98 0.3 0.56 0.717 1.03 1.25 1.41 0.527 0.387 1.13 0.593 1.81 0.62v0c0.72 0 1.357-0.117 1.91-0.35 0.553-0.233 1.017-0.533 1.39-0.9 0.373-0.367 0.69-0.86 0.95-1.48 0.26-0.62 0.46-1.213 0.6-1.78 0.14-0.573 0.247-1.283 0.32-2.13 0.073-0.847 0.117-1.573 0.13-2.18 0.02-0.613 0.03-1.383 0.03-2.31v0c0-0.68-0.02-1.313-0.06-1.9-0.047-0.587-0.117-1.24-0.21-1.96-0.1-0.713-0.263-1.343-0.49-1.89-0.227-0.547-0.503-1.06-0.83-1.54-0.327-0.48-0.753-0.85-1.28-1.11-0.533-0.26-1.14-0.39-1.82-0.39zM282.73 42.55v0c-0.36 0.353-1.113 0.563-2.26 0.63-1.147 0.067-2.56 0.05-4.24-0.05-1.673-0.093-2.567-0.14-2.68-0.14v0c-1.107 0-1.907-0.017-2.4-0.05v0h-2.44c-0.353-0.113-0.653-0.647-0.9-1.6-0.247-0.953-0.487-2.32-0.72-4.1-0.233-1.787-0.36-2.737-0.38-2.85v0c-0.067-1.607-0.327-2.667-0.78-3.18-0.453-0.513-1.283-0.77-2.49-0.77v0h-1.07v11.91c-0.033 0.2-0.207 0.363-0.52 0.49-0.307 0.133-0.75 0.22-1.33 0.26-0.573 0.04-1.087 0.063-1.54 0.07-0.447 0.007-1.037 0.003-1.77-0.01-0.727-0.02-1.173-0.03-1.34-0.03v0h-3.51c-1.987 0-3.487 0.017-4.5 0.05v0c-0.227-0.093-0.453-0.207-0.68-0.34v0-36.43c0-0.453 0.65-0.68 1.95-0.68v0h21.29c3.693 0.1 6.507 0.98 8.44 2.64 1.927 1.66 2.89 4.003 2.89 7.03v0c0 3.94-1.987 6.82-5.96 8.64v0c0.733 0.227 1.393 0.543 1.98 0.95 0.587 0.407 1.077 0.843 1.47 1.31 0.387 0.467 0.727 1.023 1.02 1.67 0.293 0.653 0.52 1.263 0.68 1.83 0.167 0.573 0.31 1.25 0.43 2.03 0.12 0.78 0.207 1.457 0.26 2.03 0.047 0.567 0.107 1.243 0.18 2.03 0.073 0.793 0.133 1.417 0.18 1.87v0 2.15c0.053 0.26 0.207 0.627 0.46 1.1 0.247 0.473 0.403 0.823 0.47 1.05v0c0 0.327-0.063 0.49-0.19 0.49zM262.22 16.08v0c0 0.98 0.007 1.707 0.02 2.18 0.02 0.467 0.11 1.083 0.27 1.85 0.167 0.767 0.41 1.313 0.73 1.64v0c0.687 0 1.337-0.073 1.95-0.22 0.607-0.147 1.197-0.383 1.77-0.71 0.567-0.327 1.017-0.81 1.35-1.45 0.333-0.647 0.5-1.417 0.5-2.31v0c0-0.507-0.09-0.95-0.27-1.33-0.18-0.38-0.44-0.687-0.78-0.92-0.34-0.227-0.677-0.41-1.01-0.55-0.333-0.133-0.74-0.23-1.22-0.29-0.48-0.053-0.86-0.09-1.14-0.11-0.273-0.013-0.607-0.02-1-0.02v0h-0.59c-0.24 0.113-0.397 0.34-0.47 0.68-0.073 0.34-0.11 0.86-0.11 1.56z" fill="#0074d9" fill-rule="nonzero" stroke="none" stroke-width="1" stroke-linecap="butt" stroke-linejoin="miter" stroke-miterlimit="10" stroke-dasharray="" stroke-dashoffset="0" font-family="none" font-weight="none" font-size="none" text-anchor="none" style="mix-blend-mode: normal" data-fill-palette-color="quaternary" opacity="1"></path><path d="M116.02 81.49v0-32.62c0-0.553 1.27-0.83 3.81-0.83v0c0.28 0 0.673 0.01 1.18 0.03 0.513 0.013 0.87 0.02 1.07 0.02v0c1.28 0 3.197-0.023 5.75-0.07 2.547-0.047 4.47-0.07 5.77-0.07v0c0.893 0 2.223 0.017 3.99 0.05 1.767 0.027 3.14 0.04 4.12 0.04v0c0.127 0 0.32-0.007 0.58-0.02 0.26-0.013 0.457-0.02 0.59-0.02v0c0.587 0 0.993 0.11 1.22 0.33 0.227 0.22 0.34 0.647 0.34 1.28v0 8.54c-0.947 0.08-1.93 0.133-2.95 0.16-1.027 0.027-2.33 0.047-3.91 0.06-1.58 0.02-2.567 0.03-2.96 0.03v0h-3.36c0 0.307-0.01 0.753-0.03 1.34-0.013 0.587-0.02 1.033-0.02 1.34v0 0.34c0.033 0.067 0.05 0.183 0.05 0.35v0c3.693-0.267 6.817-0.4 9.37-0.4v0c0.767 0 1.447 0.06 2.04 0.18 0.593 0.113 0.89 0.283 0.89 0.51v0 8.15c0 0.72-0.137 1.2-0.41 1.44-0.28 0.247-0.713 0.37-1.3 0.37v0c-0.127 0-0.363-0.017-0.71-0.05-0.34-0.033-0.607-0.05-0.8-0.05v0c-3.307 0.213-6.32 0.343-9.04 0.39v0c0 0.993 0.027 2.49 0.08 4.49 0.047 2.007 0.07 3.507 0.07 4.5v0 3.02c0 0.473-0.05 0.787-0.15 0.94-0.093 0.16-0.337 0.27-0.73 0.33v0c-1.56 0-3.87 0.017-6.93 0.05-3.06 0.033-5.37 0.05-6.93 0.05v0c-0.133-0.193-0.243-0.403-0.33-0.63-0.093-0.233-0.163-0.437-0.21-0.61-0.053-0.18-0.09-0.43-0.11-0.75-0.027-0.313-0.043-0.54-0.05-0.68-0.007-0.14-0.007-0.407 0-0.8 0.007-0.387 0.01-0.63 0.01-0.73zM162.21 85.54h-15.77c0.067-4.733 0.18-8.2 0.34-10.4v0c0-6.833 0.1-13.767 0.3-20.8v0c-0.067-1.367-0.1-2.373-0.1-3.02v0-0.74c-0.067-0.713-0.1-1.297-0.1-1.75v0c0-0.313 0.147-0.59 0.44-0.83v0c2.667 0.193 6.737 0.29 12.21 0.29v0c1.3 0 2.193-0.033 2.68-0.1v0zM164.61 55.66v0c0-0.293 0.013-0.727 0.04-1.3 0.033-0.58 0.05-0.977 0.05-1.19v0c0-0.08-0.017-0.373-0.05-0.88-0.027-0.5-0.04-0.94-0.04-1.32v0c0-1.72 0.16-2.58 0.48-2.58v0c0.133 0 0.25 0.017 0.35 0.05v0c3.4 0 8.44-0.043 15.12-0.13 6.68-0.08 11.68-0.12 15-0.12v0c0.833 0 1.36 0.073 1.58 0.22 0.22 0.147 0.33 0.433 0.33 0.86v0 0.68c0 0.847 0.007 2.097 0.02 3.75 0.02 1.647 0.03 2.903 0.03 3.77v0c0 0.847-0.23 1.27-0.69 1.27v0c-0.913 0-2.273-0.017-4.08-0.05-1.807-0.033-3.163-0.05-4.07-0.05v0 26.17c-0.113 0.487-0.39 0.747-0.83 0.78v0c-0.573 0-1.403-0.007-2.49-0.02-1.093-0.02-1.923-0.03-2.49-0.03v0c-0.033 0-0.067 0.017-0.1 0.05v0c-0.713 0-1.72-0.007-3.02-0.02-1.293-0.02-2.257-0.03-2.89-0.03v0h-1.46c-0.327 0.033-0.8 0.05-1.42 0.05v0l-0.98-1.17c0-2.473 0.083-6.15 0.25-11.03 0.16-4.887 0.24-8.567 0.24-11.04v0c0-0.113-0.003-0.3-0.01-0.56-0.007-0.26-0.01-0.47-0.01-0.63 0-0.167-0.013-0.373-0.04-0.62-0.027-0.24-0.067-0.437-0.12-0.59-0.06-0.16-0.13-0.317-0.21-0.47-0.08-0.153-0.19-0.267-0.33-0.34-0.14-0.073-0.307-0.11-0.5-0.11v0h-6.98c-0.453-0.127-0.68-1.25-0.68-3.37zM200.2 85.59l-1.07-0.58v-11.04c-0.033-4.033 0.097-11.73 0.39-23.09v0-2.01c0-0.353 0.063-0.563 0.19-0.63v0h16.8c0.16 0 0.49 0.62 0.99 1.86 0.493 1.233 1.097 2.823 1.81 4.77 0.707 1.947 1.207 3.283 1.5 4.01v0l3.41 8.94v-9.47c0-0.813 0.023-2.307 0.07-4.48 0.04-2.173 0.05-3.87 0.03-5.09v0c0-0.46 1.303-0.69 3.91-0.69v0c0.813 0 1.927 0.017 3.34 0.05 1.42 0.033 2.293 0.05 2.62 0.05v0h1.85c0.26 0 0.39 0.05 0.39 0.15v0c0.1 4.52 0.15 10.997 0.15 19.43v0 16.94c-0.113 0.427-0.633 0.64-1.56 0.64v0h-0.64c-0.847 0-2.09 0.017-3.73 0.05-1.647 0.033-2.893 0.05-3.74 0.05v0h-7.18c-0.227-0.08-0.697-1.107-1.41-3.08v0c-0.767-2.133-1.907-5.217-3.42-9.25-1.513-4.04-2.36-6.293-2.54-6.76v0c0 0.96-0.01 2.39-0.03 4.29-0.013 1.907-0.02 3.34-0.02 4.3v0c0 0.713 0.017 1.787 0.05 3.22 0.033 1.433 0.05 2.507 0.05 3.22v0 3.08c0 0.747-0.327 1.12-0.98 1.12v0zM236.43 48.39v-0.1zM241.56 84.03v0-0.93c0-2.78 0.033-6.89 0.1-12.33 0.06-5.433 0.09-9.54 0.09-12.32v0-10.11h28.42v8.01c0 0.047 0 0.167 0 0.36 0 0.193 0 0.323 0 0.39 0 0.067-0.007 0.187-0.02 0.36-0.02 0.167-0.05 0.283-0.09 0.35-0.04 0.067-0.097 0.16-0.17 0.28-0.073 0.12-0.16 0.207-0.26 0.26-0.093 0.047-0.223 0.09-0.39 0.13-0.16 0.04-0.337 0.06-0.53 0.06v0h-0.69c-4.213 0-8.053-0.063-11.52-0.19v0c-0.033 0.26-0.087 0.663-0.16 1.21-0.073 0.54-0.13 1.02-0.17 1.44-0.04 0.413-0.06 0.813-0.06 1.2v0h11.62c0.487 0 0.813 0.067 0.98 0.2 0.16 0.133 0.24 0.343 0.24 0.63v0c0 0.087-0.007 0.22-0.02 0.4-0.02 0.173-0.03 0.303-0.03 0.39v0c0 0.78 0.027 1.933 0.08 3.46 0.047 1.533 0.07 2.69 0.07 3.47v0c-0.047 0.327-0.177 0.49-0.39 0.49v0c-0.1 0-0.183-0.033-0.25-0.1v0c-5.14 0.26-8.947 0.39-11.42 0.39v0h-0.64v3.52c1.453 0 3.55-0.067 6.29-0.2 2.74-0.127 4.793-0.19 6.16-0.19v0c1.08 0 1.7 0.227 1.86 0.68v0 1.86c0 0.78 0.017 1.933 0.05 3.46 0.033 1.533 0.05 2.69 0.05 3.47v0c0 0.813-0.327 1.22-0.98 1.22v0c-0.847 0-2.15-0.007-3.91-0.02-1.753-0.02-3.087-0.03-4-0.03v0c-2.34 0-5.693 0.06-10.06 0.18-4.36 0.127-7.517 0.197-9.47 0.21v0l-0.68-0.78c-0.067-0.453-0.1-0.747-0.1-0.88zM288.97 86.37v0c-1.92-0.08-3.647-0.247-5.18-0.5-1.527-0.247-3.003-0.653-4.43-1.22-1.42-0.56-2.617-1.267-3.59-2.12-0.967-0.853-1.77-1.947-2.41-3.28-0.647-1.34-1.043-2.887-1.19-4.64v0c0-0.313 0.163-0.493 0.49-0.54v0c0.1 0.033 0.263 0.05 0.49 0.05v0c1.353 0 3.403-0.033 6.15-0.1 2.753-0.067 4.807-0.1 6.16-0.1v0c0.34 0 0.607 0.11 0.8 0.33 0.193 0.22 0.353 0.49 0.48 0.81 0.12 0.313 0.267 0.63 0.44 0.95 0.167 0.32 0.46 0.59 0.88 0.81 0.413 0.22 0.943 0.33 1.59 0.33v0c0.8 0 1.507-0.227 2.12-0.68 0.607-0.447 0.91-1.05 0.91-1.81v0c0-0.507-0.26-0.973-0.78-1.4-0.52-0.42-1.207-0.763-2.06-1.03-0.853-0.273-1.667-0.503-2.44-0.69-0.773-0.187-1.567-0.347-2.38-0.48-0.82-0.14-1.293-0.227-1.42-0.26v0c-3.953-1.073-6.797-2.41-8.53-4.01-1.733-1.593-2.6-3.773-2.6-6.54v0c0-1.953 0.357-3.707 1.07-5.26 0.72-1.553 1.657-2.823 2.81-3.81 1.153-0.987 2.52-1.807 4.1-2.46 1.58-0.66 3.177-1.127 4.79-1.4 1.607-0.267 3.273-0.4 5-0.4v0c4.573 0 8.22 0.847 10.94 2.54v0c0.993 0.993 1.72 1.747 2.18 2.26 0.467 0.513 0.917 1.11 1.35 1.79 0.427 0.687 0.727 1.36 0.9 2.02 0.173 0.66 0.29 1.47 0.35 2.43v0l-0.88 0.88c-3.333 0.127-7.077 0.19-11.23 0.19v0c-0.52 0-0.937-0.057-1.25-0.17-0.32-0.113-0.533-0.26-0.64-0.44-0.107-0.18-0.213-0.367-0.32-0.56-0.1-0.193-0.197-0.38-0.29-0.56-0.087-0.18-0.273-0.327-0.56-0.44-0.287-0.113-0.667-0.17-1.14-0.17v0c-0.127 0-0.333 0.023-0.62 0.07-0.287 0.047-0.62 0.123-1 0.23-0.38 0.107-0.71 0.27-0.99 0.49-0.273 0.22-0.41 0.477-0.41 0.77v0c0 0.36 0.183 0.687 0.55 0.98 0.367 0.293 0.753 0.503 1.16 0.63 0.407 0.133 0.91 0.277 1.51 0.43 0.6 0.153 0.973 0.253 1.12 0.3v0c3.547 0.9 5.663 1.453 6.35 1.66v0c3.567 1.127 6.09 2.6 7.57 4.42v0c1.367 1.693 2.05 3.817 2.05 6.37v0c0 1.547-0.2 2.957-0.6 4.23-0.4 1.267-0.923 2.34-1.57 3.22-0.653 0.88-1.467 1.66-2.44 2.34-0.98 0.687-1.97 1.233-2.97 1.64-1 0.407-2.137 0.75-3.41 1.03-1.267 0.273-2.433 0.47-3.5 0.59-1.067 0.127-2.227 0.22-3.48 0.28zM325.2 86.37v0c-1.92-0.08-3.643-0.247-5.17-0.5-1.533-0.247-3.013-0.653-4.44-1.22-1.42-0.56-2.613-1.267-3.58-2.12-0.973-0.853-1.78-1.947-2.42-3.28-0.647-1.34-1.043-2.887-1.19-4.64v0c0-0.313 0.163-0.493 0.49-0.54v0c0.1 0.033 0.263 0.05 0.49 0.05v0c1.353 0 3.403-0.033 6.15-0.1 2.753-0.067 4.807-0.1 6.16-0.1v0c0.34 0 0.607 0.11 0.8 0.33 0.193 0.22 0.353 0.49 0.48 0.81 0.12 0.313 0.267 0.63 0.44 0.95 0.167 0.32 0.46 0.59 0.88 0.81 0.413 0.22 0.943 0.33 1.59 0.33v0c0.8 0 1.507-0.227 2.12-0.68 0.607-0.447 0.91-1.05 0.91-1.81v0c0-0.507-0.26-0.973-0.78-1.4-0.52-0.42-1.207-0.763-2.06-1.03-0.853-0.273-1.667-0.503-2.44-0.69-0.773-0.187-1.567-0.347-2.38-0.48-0.813-0.14-1.287-0.227-1.42-0.26v0c-3.953-1.073-6.797-2.41-8.53-4.01-1.733-1.593-2.6-3.773-2.6-6.54v0c0-1.953 0.357-3.707 1.07-5.26 0.72-1.553 1.657-2.823 2.81-3.81 1.153-0.987 2.52-1.807 4.1-2.46 1.58-0.66 3.177-1.127 4.79-1.4 1.607-0.267 3.273-0.4 5-0.4v0c4.573 0 8.22 0.847 10.94 2.54v0c0.993 0.993 1.72 1.747 2.18 2.26 0.467 0.513 0.917 1.11 1.35 1.79 0.427 0.687 0.727 1.36 0.9 2.02 0.173 0.66 0.29 1.47 0.35 2.43v0l-0.88 0.88c-3.333 0.127-7.077 0.19-11.23 0.19v0c-0.52 0-0.937-0.057-1.25-0.17-0.32-0.113-0.533-0.26-0.64-0.44-0.107-0.18-0.213-0.367-0.32-0.56-0.1-0.193-0.197-0.38-0.29-0.56-0.087-0.18-0.273-0.327-0.56-0.44-0.287-0.113-0.667-0.17-1.14-0.17v0c-0.127 0-0.333 0.023-0.62 0.07-0.287 0.047-0.62 0.123-1 0.23-0.38 0.107-0.71 0.27-0.99 0.49-0.273 0.22-0.41 0.477-0.41 0.77v0c0 0.36 0.183 0.687 0.55 0.98 0.367 0.293 0.753 0.503 1.16 0.63 0.407 0.133 0.91 0.277 1.51 0.43 0.6 0.153 0.973 0.253 1.12 0.3v0c3.553 0.9 5.67 1.453 6.35 1.66v0c3.567 1.127 6.09 2.6 7.57 4.42v0c1.367 1.693 2.05 3.817 2.05 6.37v0c0 1.547-0.2 2.957-0.6 4.23-0.4 1.267-0.923 2.34-1.57 3.22-0.653 0.88-1.467 1.66-2.44 2.34-0.98 0.687-1.97 1.233-2.97 1.64-1 0.407-2.137 0.75-3.41 1.03-1.267 0.273-2.433 0.47-3.5 0.59-1.067 0.127-2.227 0.22-3.48 0.28z" fill="#0074d9" fill-rule="nonzero" stroke="none" stroke-width="1" stroke-linecap="butt" stroke-linejoin="miter" stroke-miterlimit="10" stroke-dasharray="" stroke-dashoffset="0" font-family="none" font-weight="none" font-size="none" text-anchor="none" style="mix-blend-mode: normal" data-fill-palette-color="quaternary" opacity="1"></path><path d="M193.35 128.04l-1.08-0.58v-11.04c-0.033-4.033 0.097-11.73 0.39-23.09v0-2.01c0-0.353 0.067-0.563 0.2-0.63v0h16.8c0.16 0 0.487 0.62 0.98 1.86 0.5 1.233 1.103 2.823 1.81 4.77 0.707 1.947 1.207 3.283 1.5 4.01v0l3.42 8.94v-9.47c0-0.813 0.02-2.307 0.06-4.48 0.04-2.173 0.053-3.87 0.04-5.09v0c0-0.46 1.3-0.69 3.9-0.69v0c0.82 0 1.937 0.017 3.35 0.05 1.413 0.033 2.283 0.05 2.61 0.05v0h1.86c0.26 0 0.39 0.05 0.39 0.15v0c0.093 4.52 0.14 10.997 0.14 19.43v0 16.94c-0.113 0.427-0.633 0.64-1.56 0.64v0h-0.63c-0.847 0-2.093 0.017-3.74 0.05-1.64 0.033-2.883 0.05-3.73 0.05v0h-7.18c-0.227-0.08-0.7-1.107-1.42-3.08v0c-0.76-2.133-1.9-5.217-3.42-9.25-1.513-4.04-2.357-6.293-2.53-6.76v0c0 0.96-0.01 2.39-0.03 4.29-0.013 1.907-0.02 3.34-0.02 4.3v0c0 0.713 0.017 1.787 0.05 3.22 0.027 1.433 0.04 2.507 0.04 3.22v0 3.08c0 0.747-0.323 1.12-0.97 1.12v0zM229.58 90.84v-0.1zM232.8 126.97v0-0.78c0-1.4 0.023-3.053 0.07-4.96 0.053-1.9 0.11-2.85 0.17-2.85v0c0.02 0.013 0.257-0.273 0.71-0.86 0.46-0.587 1.31-1.653 2.55-3.2 1.247-1.547 2.537-3.14 3.87-4.78v0l7.13-8.69c-1.48 0-3.66 0.023-6.54 0.07-2.88 0.047-5.06 0.07-6.54 0.07v0c-0.247-0.06-0.407-0.187-0.48-0.38-0.073-0.187-0.11-0.45-0.11-0.79v0-2.93c0-0.16-0.033-0.747-0.1-1.76-0.06-1.007-0.09-1.787-0.09-2.34v0c0-1.3 0.16-1.95 0.48-1.95v0c5.533 0 13.607-0.067 24.22-0.2v0h5.18c0.94 0 1.517 0.083 1.73 0.25 0.213 0.16 0.32 0.697 0.32 1.61v0c0 0.227-0.017 0.513-0.05 0.86-0.033 0.353-0.05 0.553-0.05 0.6v0 0.15c0 1.413-0.087 2.677-0.26 3.79-0.167 1.12-0.36 2.04-0.58 2.76-0.22 0.727-0.587 1.48-1.1 2.26-0.513 0.78-0.963 1.393-1.35 1.84-0.393 0.453-1.007 1.13-1.84 2.03-0.827 0.907-1.51 1.677-2.05 2.31v0l-7.08 8.4h14.07c0.173 0 0.32 0.127 0.44 0.38 0.113 0.247 0.193 0.64 0.24 1.18 0.047 0.533 0.073 0.993 0.08 1.38 0.013 0.38 0.02 0.93 0.02 1.65v0 2.24c0 0.147 0.017 0.437 0.05 0.87 0.027 0.433 0.04 0.763 0.04 0.99v0c0 0.747-0.13 1.227-0.39 1.44-0.26 0.213-0.747 0.32-1.46 0.32v0h-0.59c-3.187 0-7.943 0.047-14.27 0.14-6.32 0.1-11.067 0.15-14.24 0.15v0c-0.553 0-0.953-0.073-1.2-0.22-0.24-0.147-0.573-0.497-1-1.05z" fill="#0074d9" fill-rule="nonzero" stroke="none" stroke-width="1" stroke-linecap="butt" stroke-linejoin="miter" stroke-miterlimit="10" stroke-dasharray="" stroke-dashoffset="0" font-family="none" font-weight="none" font-size="none" text-anchor="none" style="mix-blend-mode: normal" data-fill-palette-color="quaternary" opacity="1"></path></g></svg></g></svg></g></svg></g></svg></g></svg></g></svg></g></svg></g><defs></defs></svg><rect width="320" height="360" fill="none" stroke="none" visibility="hidden"></rect></g></svg></g></svg>