<svg xmlns="http://www.w3.org/2000/svg" version="1.1" xmlns:xlink="http://www.w3.org/1999/xlink" xmlns:svgjs="http://svgjs.dev/svgjs" width="2000" height="1999" viewBox="0 0 2000 1999"><g transform="matrix(1,0,0,1,-0.431486880466764,-0.4312711370263287)"><svg viewBox="0 0 343 343" data-background-color="#ffffff" preserveAspectRatio="xMidYMid meet" height="1999" width="2000" xmlns="http://www.w3.org/2000/svg" xmlns:xlink="http://www.w3.org/1999/xlink"><g id="tight-bounds" transform="matrix(1,0,0,1,0.0740000000000407,0.07400000000001228)"><svg viewBox="0 0 342.85155851775386 342.85155851775386" height="342.85155851775386" width="342.85155851775386"><g><svg></svg></g><g><svg viewBox="0 0 342.85155851775386 342.85155851775386" height="342.85155851775386" width="342.85155851775386"><g><path d="M0 171.426c0-94.676 76.75-171.426 171.426-171.426 94.676 0 171.426 76.75 171.426 171.426 0 94.676-76.75 171.426-171.426 171.426-94.676 0-171.426-76.75-171.426-171.426zM171.426 341.213c93.771 0 169.787-76.016 169.787-169.787 0-93.771-76.016-169.787-169.787-169.788-93.771 0-169.787 76.016-169.788 169.788 0 93.771 76.016 169.787 169.788 169.787z" data-fill-palette-color="tertiary" fill="#31302e" stroke="transparent"></path><ellipse rx="164.56874808852186" ry="164.56874808852186" cx="171.42577925887693" cy="171.42577925887693" fill="#31302e" stroke="transparent" stroke-width="0" fill-opacity="1" data-fill-palette-color="tertiary"></ellipse></g><g transform="matrix(1,0,0,1,64.84655864529837,147.64284537775242)"><svg viewBox="0 0 213.1584412271571 47.56586776224901" height="47.56586776224901" width="213.1584412271571"><g><svg viewBox="0 0 213.1584412271571 47.56586776224901" height="47.56586776224901" width="213.1584412271571"><g><svg viewBox="0 0 213.1584412271571 47.56586776224901" height="47.56586776224901" width="213.1584412271571"><g transform="matrix(1,0,0,1,0,29.3976145250439)"><svg viewBox="0 0 213.1584412271571 18.16825323720511" height="18.16825323720511" width="213.1584412271571"><g id="textblocktransform"><svg viewBox="0 0 213.1584412271571 18.16825323720511" height="18.16825323720511" width="213.1584412271571" id="textblock"><g><svg viewBox="0 0 213.1584412271571 18.16825323720511" height="18.16825323720511" width="213.1584412271571"><g transform="matrix(1,0,0,1,0,0)"><svg width="213.1584412271571" viewBox="1.55 -38 456.33 38.5" height="18.16825323720511" data-palette-color="#ffffff"><path d="M1.55-37.5L16.3-37.5Q20.8-37.5 23.68-36.16 26.55-34.83 27.93-32.4 29.3-29.98 29.3-26.73L29.3-26.73Q29.3-23.48 27.93-21.11 26.55-18.75 23.68-17.48 20.8-16.2 16.3-16.2L16.3-16.2 10.83-16.2 10.83-0.98 15.3-0.98 15.3 0 1.55 0 1.55-0.98 6.05-0.98 6.05-36.52 1.55-36.52 1.55-37.5ZM10.83-36.52L10.83-17.18 16.3-17.18Q18.07-17.18 19.48-18.03 20.88-18.88 21.84-20.28 22.8-21.68 23.3-23.36 23.8-25.05 23.8-26.73L23.8-26.73Q23.8-28.4 23.3-30.13 22.8-31.85 21.84-33.3 20.88-34.75 19.48-35.64 18.07-36.52 16.3-36.52L16.3-36.52 10.83-36.52ZM53 0.5L53 0.5Q51.82 0.5 50.84 0.09 49.85-0.33 49.25-1.29 48.65-2.25 48.65-3.88L48.65-3.88 48.65-15.23Q48.65-17.03 48.35-18.68 48.05-20.33 47.09-21.38 46.12-22.43 44.12-22.43L44.12-22.43Q43-22.43 41.78-22.18 40.57-21.93 39.53-21.41 38.5-20.9 37.85-20.13 37.2-19.35 37.2-18.3L37.2-18.3 36.02-18.3Q36.02-19.58 36.86-20.31 37.7-21.05 38.7-21.05L38.7-21.05Q39.77-21.05 40.66-20.36 41.55-19.68 41.55-18.4L41.55-18.4Q41.55-16.9 40.63-16.23 39.72-15.55 38.7-15.55L38.7-15.55Q37.55-15.55 36.76-16.25 35.97-16.95 35.97-18.3L35.97-18.3Q35.97-19.48 36.73-20.41 37.5-21.35 38.78-22.01 40.07-22.68 41.69-23.04 43.3-23.4 45-23.4L45-23.4Q48.45-23.4 50.16-22.2 51.87-21 52.45-19.13 53.02-17.25 53.02-15.23L53.02-15.23 53.02-2.93Q53.02-2.1 53.31-1.53 53.6-0.95 54.52-0.95L54.52-0.95Q55.17-0.95 55.96-1.49 56.75-2.02 57.17-2.85L57.17-2.85 57.65-1.95Q57-0.9 55.82-0.2 54.65 0.5 53 0.5ZM41.35 0.5L41.35 0.5Q38.1 0.5 36.16-1.16 34.22-2.83 34.22-5.68L34.22-5.68Q34.22-9.03 37.1-10.94 39.97-12.85 45.3-12.85L45.3-12.85 50.97-12.85 50.97-12 45.3-12Q43.1-12 41.75-11.08 40.4-10.15 39.77-8.78 39.15-7.4 39.15-6.03L39.15-6.03Q39.15-4.78 39.53-3.63 39.92-2.48 40.75-1.73 41.57-0.98 42.9-0.98L42.9-0.98Q44.27-0.98 45.6-1.89 46.92-2.8 47.78-4.61 48.65-6.43 48.65-9.15L48.65-9.15 49.22-9.15Q49.22-6.3 48.31-4.13 47.4-1.95 45.65-0.73 43.9 0.5 41.35 0.5ZM61.25 0.5L60.4 0.5 60.4-6.8 61.4-6.8Q61.67-5.08 62.76-3.66 63.85-2.25 65.45-1.4 67.05-0.55 68.9-0.55L68.9-0.55Q70.3-0.55 71.55-1 72.8-1.45 73.57-2.38 74.35-3.3 74.35-4.78L74.35-4.78Q74.35-6.35 73.4-7.28 72.45-8.2 70.93-8.79 69.42-9.38 67.73-9.94 66.05-10.5 64.53-11.3 63.02-12.1 62.06-13.43 61.1-14.75 61.1-16.95L61.1-16.95Q61.1-18.55 61.82-20.04 62.55-21.53 64.05-22.49 65.55-23.45 67.92-23.45L67.92-23.45Q69.62-23.45 71.05-22.89 72.47-22.33 73.55-21.43L73.55-21.43 75.42-23.48 76.3-23.48 76.3-16.5 75.3-16.5Q75.17-17.98 74.21-19.33 73.25-20.68 71.65-21.55 70.05-22.43 67.97-22.43L67.97-22.43Q66.77-22.43 65.8-22.01 64.82-21.6 64.22-20.83 63.62-20.05 63.62-18.98L63.62-18.98Q63.62-17.6 64.63-16.74 65.65-15.88 67.22-15.25 68.8-14.63 70.57-14.01 72.35-13.4 73.93-12.54 75.52-11.68 76.52-10.34 77.52-9 77.52-6.93L77.52-6.93Q77.52-4.7 76.43-3.03 75.35-1.35 73.5-0.43 71.65 0.5 69.3 0.5L69.3 0.5Q67.57 0.5 66.02-0.1 64.47-0.7 63.27-1.73L63.27-1.73 61.25 0.5ZM83.19 0.5L82.34 0.5 82.34-6.8 83.34-6.8Q83.62-5.08 84.71-3.66 85.79-2.25 87.39-1.4 88.99-0.55 90.84-0.55L90.84-0.55Q92.24-0.55 93.49-1 94.74-1.45 95.52-2.38 96.29-3.3 96.29-4.78L96.29-4.78Q96.29-6.35 95.34-7.28 94.39-8.2 92.88-8.79 91.37-9.38 89.68-9.94 87.99-10.5 86.48-11.3 84.97-12.1 84.01-13.43 83.04-14.75 83.04-16.95L83.04-16.95Q83.04-18.55 83.77-20.04 84.49-21.53 85.99-22.49 87.49-23.45 89.87-23.45L89.87-23.45Q91.57-23.45 92.99-22.89 94.42-22.33 95.49-21.43L95.49-21.43 97.37-23.48 98.24-23.48 98.24-16.5 97.24-16.5Q97.12-17.98 96.16-19.33 95.19-20.68 93.59-21.55 91.99-22.43 89.92-22.43L89.92-22.43Q88.72-22.43 87.74-22.01 86.77-21.6 86.17-20.83 85.57-20.05 85.57-18.98L85.57-18.98Q85.57-17.6 86.58-16.74 87.59-15.88 89.17-15.25 90.74-14.63 92.52-14.01 94.29-13.4 95.88-12.54 97.47-11.68 98.47-10.34 99.47-9 99.47-6.93L99.47-6.93Q99.47-4.7 98.38-3.03 97.29-1.35 95.44-0.43 93.59 0.5 91.24 0.5L91.24 0.5Q89.52 0.5 87.97-0.1 86.42-0.7 85.22-1.73L85.22-1.73 83.19 0.5ZM109.57-31.85L109.57-31.85Q108.32-31.85 107.44-32.74 106.57-33.63 106.57-34.88L106.57-34.88Q106.57-36.1 107.44-36.99 108.32-37.88 109.57-37.88L109.57-37.88Q110.79-37.88 111.68-36.99 112.57-36.1 112.57-34.88L112.57-34.88Q112.57-33.63 111.69-32.74 110.82-31.85 109.57-31.85ZM104.04-23L111.79-23 111.79-0.98 115.07-0.98 115.07 0 104.04 0 104.04-0.98 107.29-0.98 107.29-22.03 104.04-22.03 104.04-23ZM131.16 0.5L131.16 0.5Q127.64 0.5 125.06-1.15 122.49-2.8 121.09-5.53 119.69-8.25 119.69-11.5L119.69-11.5Q119.69-14.75 121.09-17.48 122.49-20.2 125.06-21.84 127.64-23.48 131.16-23.48L131.16-23.48Q134.69-23.48 137.25-21.84 139.81-20.2 141.2-17.48 142.59-14.75 142.59-11.5L142.59-11.5Q142.59-8.25 141.2-5.53 139.81-2.8 137.25-1.15 134.69 0.5 131.16 0.5ZM131.16-0.48L131.16-0.48Q133.16-0.48 134.43-1.53 135.69-2.58 136.35-4.24 137.01-5.9 137.25-7.83 137.49-9.75 137.49-11.5L137.49-11.5Q137.49-13.28 137.25-15.19 137.01-17.1 136.35-18.76 135.69-20.43 134.43-21.48 133.16-22.53 131.16-22.53L131.16-22.53Q129.14-22.53 127.89-21.48 126.64-20.43 125.98-18.76 125.31-17.1 125.08-15.19 124.84-13.28 124.84-11.5L124.84-11.5Q124.84-9.75 125.08-7.83 125.31-5.9 125.98-4.24 126.64-2.58 127.89-1.53 129.14-0.48 131.16-0.48ZM146.99-23L154.64-23 154.64-0.98 157.86-0.98 157.86 0 146.99 0 146.99-0.98 150.26-0.98 150.26-22.03 146.99-22.03 146.99-23ZM169.89-15.98L169.89-15.98 169.89-0.98 173.16-0.98 173.16 0 162.24 0 162.24-0.98 165.49-0.98 165.49-15.23Q165.49-17.32 165.3-18.91 165.11-20.5 164.46-21.39 163.81-22.28 162.44-22.28L162.44-22.28Q160.41-22.28 158.94-21.18 157.46-20.08 156.51-18.36 155.56-16.65 155.1-14.74 154.64-12.83 154.64-11.23L154.64-11.23 154.01-11.1Q154.01-12.75 154.45-14.86 154.89-16.98 155.91-18.95 156.94-20.93 158.69-22.2 160.44-23.48 163.09-23.48L163.09-23.48Q165.96-23.48 167.42-22.5 168.89-21.53 169.39-19.84 169.89-18.15 169.89-15.98ZM185.28 0L180.78 0 180.78-25.58Q180.78-28.85 181.9-31.69 183.01-34.52 185.2-36.26 187.38-38 190.63-38L190.63-38Q192.66-38 194.02-37.25 195.38-36.5 196.08-35.36 196.78-34.23 196.78-33.05L196.78-33.05Q196.78-31.53 195.92-30.74 195.06-29.95 193.91-29.95L193.91-29.95Q193.28-29.95 192.65-30.21 192.01-30.48 191.57-31.08 191.13-31.68 191.13-32.68L191.13-32.68Q191.13-34 192.05-34.73 192.96-35.45 193.91-35.45L193.91-35.45Q194.58-35.45 195.23-35.16 195.88-34.88 196.31-34.34 196.73-33.8 196.73-33.05L196.73-33.05 195.78-33.05Q195.78-34.08 195.15-34.98 194.51-35.88 193.35-36.45 192.18-37.02 190.63-37.02L190.63-37.02Q188.63-37.02 187.46-35.84 186.28-34.65 185.78-32.41 185.28-30.18 185.28-27L185.28-27 185.28 0ZM191.03 0L176.53 0 176.53-0.98 191.03-0.98 191.03 0ZM192.03-22.03L176.53-22.03 176.53-23 192.03-23 192.03-22.03ZM208.88 0.5L208.88 0.5Q205.36 0.5 202.78-1.15 200.21-2.8 198.81-5.53 197.41-8.25 197.41-11.5L197.41-11.5Q197.41-14.75 198.81-17.48 200.21-20.2 202.78-21.84 205.36-23.48 208.88-23.48L208.88-23.48Q212.41-23.48 214.97-21.84 217.53-20.2 218.92-17.48 220.31-14.75 220.31-11.5L220.31-11.5Q220.31-8.25 218.92-5.53 217.53-2.8 214.97-1.15 212.41 0.5 208.88 0.5ZM208.88-0.48L208.88-0.48Q210.88-0.48 212.14-1.53 213.41-2.58 214.07-4.24 214.73-5.9 214.97-7.83 215.21-9.75 215.21-11.5L215.21-11.5Q215.21-13.28 214.97-15.19 214.73-17.1 214.07-18.76 213.41-20.43 212.14-21.48 210.88-22.53 208.88-22.53L208.88-22.53Q206.86-22.53 205.61-21.48 204.36-20.43 203.69-18.76 203.03-17.1 202.79-15.19 202.56-13.28 202.56-11.5L202.56-11.5Q202.56-9.75 202.79-7.83 203.03-5.9 203.69-4.24 204.36-2.58 205.61-1.53 206.86-0.48 208.88-0.48ZM232.35-10.73L231.78-10.73Q231.78-12.93 232.24-15.18 232.7-17.43 233.64-19.3 234.58-21.18 235.99-22.33 237.4-23.48 239.33-23.48L239.33-23.48Q240.7-23.48 241.68-22.95 242.65-22.43 243.15-21.58 243.65-20.73 243.65-19.75L243.65-19.75Q243.65-18.48 242.88-17.59 242.1-16.7 240.8-16.7L240.8-16.7Q239.48-16.7 238.69-17.44 237.9-18.18 237.9-19.3L237.9-19.3Q237.9-20.7 238.82-21.4 239.73-22.1 240.8-22.1L240.8-22.1Q241.58-22.1 242.22-21.79 242.85-21.48 243.23-20.95 243.6-20.43 243.6-19.75L243.6-19.75 242.63-19.75Q242.63-20.53 242.17-21.15 241.7-21.78 240.93-22.13 240.15-22.48 239.23-22.48L239.23-22.48Q237.73-22.48 236.47-21.46 235.2-20.45 234.28-18.74 233.35-17.03 232.85-14.94 232.35-12.85 232.35-10.73L232.35-10.73ZM224.7-23L232.35-23 232.35-0.98 235.9-0.98 235.9 0 224.7 0 224.7-0.98 227.98-0.98 227.98-22.03 224.7-22.03 224.7-23ZM255.33 0L250.83 0 250.83-25.58Q250.83-28.85 251.94-31.69 253.05-34.52 255.24-36.26 257.43-38 260.68-38L260.68-38Q262.7-38 264.06-37.25 265.43-36.5 266.13-35.36 266.83-34.23 266.83-33.05L266.83-33.05Q266.83-31.53 265.96-30.74 265.1-29.95 263.95-29.95L263.95-29.95Q263.33-29.95 262.69-30.21 262.05-30.48 261.61-31.08 261.18-31.68 261.18-32.68L261.18-32.68Q261.18-34 262.09-34.73 263-35.45 263.95-35.45L263.95-35.45Q264.63-35.45 265.28-35.16 265.93-34.88 266.35-34.34 266.78-33.8 266.78-33.05L266.78-33.05 265.83-33.05Q265.83-34.08 265.19-34.98 264.55-35.88 263.39-36.45 262.23-37.02 260.68-37.02L260.68-37.02Q258.68-37.02 257.5-35.84 256.33-34.65 255.83-32.41 255.33-30.18 255.33-27L255.33-27 255.33 0ZM261.08 0L246.58 0 246.58-0.98 261.08-0.98 261.08 0ZM262.08-22.03L246.58-22.03 246.58-23 262.08-23 262.08-22.03ZM272.47-31.85L272.47-31.85Q271.22-31.85 270.35-32.74 269.47-33.63 269.47-34.88L269.47-34.88Q269.47-36.1 270.35-36.99 271.22-37.88 272.47-37.88L272.47-37.88Q273.7-37.88 274.59-36.99 275.47-36.1 275.47-34.88L275.47-34.88Q275.47-33.63 274.6-32.74 273.72-31.85 272.47-31.85ZM266.95-23L274.7-23 274.7-0.98 277.97-0.98 277.97 0 266.95 0 266.95-0.98 270.2-0.98 270.2-22.03 266.95-22.03 266.95-23ZM289.55 0.35L289.55 0.35Q287.5 0.35 286.46-0.56 285.42-1.48 285.06-2.84 284.7-4.2 284.7-5.58L284.7-5.58 284.7-28Q285.82-28 287.12-28.48 288.42-28.95 289.17-29.5L289.17-29.5 289.17-4.4Q289.17-2.53 289.63-1.9 290.1-1.28 291.15-1.28L291.15-1.28Q292.32-1.28 293.41-2.33 294.5-3.38 295.17-4.7L295.17-4.7 296-4.17Q295-2.15 293.47-0.9 291.95 0.35 289.55 0.35ZM294.52-22.03L281.35-22.03 281.35-23 294.52-23 294.52-22.03ZM298.62-23L306.27-23 306.27-0.98 309.49-0.98 309.49 0 298.62 0 298.62-0.98 301.89-0.98 301.89-22.03 298.62-22.03 298.62-23ZM321.52-15.98L321.52-15.98 321.52-0.98 324.79-0.98 324.79 0 313.87 0 313.87-0.98 317.12-0.98 317.12-15.23Q317.12-17.32 316.93-18.91 316.74-20.5 316.09-21.39 315.44-22.28 314.07-22.28L314.07-22.28Q312.04-22.28 310.57-21.18 309.09-20.08 308.14-18.36 307.19-16.65 306.73-14.74 306.27-12.83 306.27-11.23L306.27-11.23 305.64-11.1Q305.64-12.75 306.08-14.86 306.52-16.98 307.54-18.95 308.57-20.93 310.32-22.2 312.07-23.48 314.72-23.48L314.72-23.48Q317.59-23.48 319.06-22.5 320.52-21.53 321.02-19.84 321.52-18.15 321.52-15.98ZM340.49 0.5L340.49 0.5Q337.29 0.5 334.73-0.94 332.17-2.38 330.65-5.06 329.14-7.75 329.14-11.5L329.14-11.5Q329.14-15.25 330.56-17.94 331.99-20.63 334.48-22.05 336.96-23.48 340.19-23.48L340.19-23.48Q343.81-23.48 345.98-22.04 348.14-20.6 349.1-18.25 350.06-15.9 350.06-13.18L350.06-13.18 332.51-13.18 332.51-14.15 344.76-14.15Q344.76-15.4 344.63-16.85 344.49-18.3 344.04-19.59 343.59-20.88 342.68-21.7 341.76-22.53 340.19-22.53L340.19-22.53Q338.39-22.53 337.24-21.61 336.09-20.7 335.44-19.15 334.79-17.6 334.54-15.63 334.29-13.65 334.29-11.5L334.29-11.5Q334.29-9.35 334.58-7.39 334.87-5.43 335.58-3.9 336.29-2.38 337.55-1.48 338.81-0.58 340.76-0.58L340.76-0.58Q344.12-0.58 346.24-2.26 348.37-3.95 349.31-6.53L349.31-6.53 350.44-6.53Q349.46-3.5 347.01-1.5 344.56 0.5 340.49 0.5ZM355.91 0.5L355.06 0.5 355.06-6.8 356.06-6.8Q356.34-5.08 357.43-3.66 358.51-2.25 360.11-1.4 361.71-0.55 363.56-0.55L363.56-0.55Q364.96-0.55 366.21-1 367.46-1.45 368.24-2.38 369.01-3.3 369.01-4.78L369.01-4.78Q369.01-6.35 368.06-7.28 367.11-8.2 365.6-8.79 364.09-9.38 362.4-9.94 360.71-10.5 359.2-11.3 357.69-12.1 356.73-13.43 355.76-14.75 355.76-16.95L355.76-16.95Q355.76-18.55 356.49-20.04 357.21-21.53 358.71-22.49 360.21-23.45 362.59-23.45L362.59-23.45Q364.29-23.45 365.71-22.89 367.14-22.33 368.21-21.43L368.21-21.43 370.09-23.48 370.96-23.48 370.96-16.5 369.96-16.5Q369.84-17.98 368.88-19.33 367.91-20.68 366.31-21.55 364.71-22.43 362.64-22.43L362.64-22.43Q361.44-22.43 360.46-22.01 359.49-21.6 358.89-20.83 358.29-20.05 358.29-18.98L358.29-18.98Q358.29-17.6 359.3-16.74 360.31-15.88 361.89-15.25 363.46-14.63 365.24-14.01 367.01-13.4 368.6-12.54 370.19-11.68 371.19-10.34 372.19-9 372.19-6.93L372.19-6.93Q372.19-4.7 371.1-3.03 370.01-1.35 368.16-0.43 366.31 0.5 363.96 0.5L363.96 0.5Q362.24 0.5 360.69-0.1 359.14-0.7 357.94-1.73L357.94-1.73 355.91 0.5ZM377.86 0.5L377.01 0.5 377.01-6.8 378.01-6.8Q378.29-5.08 379.37-3.66 380.46-2.25 382.06-1.4 383.66-0.55 385.51-0.55L385.51-0.55Q386.91-0.55 388.16-1 389.41-1.45 390.19-2.38 390.96-3.3 390.96-4.78L390.96-4.78Q390.96-6.35 390.01-7.28 389.06-8.2 387.55-8.79 386.04-9.38 384.35-9.94 382.66-10.5 381.15-11.3 379.63-12.1 378.67-13.43 377.71-14.75 377.71-16.95L377.71-16.95Q377.71-18.55 378.44-20.04 379.16-21.53 380.66-22.49 382.16-23.45 384.54-23.45L384.54-23.45Q386.24-23.45 387.66-22.89 389.08-22.33 390.16-21.43L390.16-21.43 392.04-23.48 392.91-23.48 392.91-16.5 391.91-16.5Q391.79-17.98 390.82-19.33 389.86-20.68 388.26-21.55 386.66-22.43 384.58-22.43L384.58-22.43Q383.38-22.43 382.41-22.01 381.44-21.6 380.83-20.83 380.24-20.05 380.24-18.98L380.24-18.98Q380.24-17.6 381.25-16.74 382.26-15.88 383.83-15.25 385.41-14.63 387.19-14.01 388.96-13.4 390.55-12.54 392.13-11.68 393.13-10.34 394.13-9 394.13-6.93L394.13-6.93Q394.13-4.7 393.05-3.03 391.96-1.35 390.11-0.43 388.26 0.5 385.91 0.5L385.91 0.5Q384.19 0.5 382.63-0.1 381.08-0.7 379.88-1.73L379.88-1.73 377.86 0.5ZM401.63 0.5L401.63 0.5Q400.81 0.5 400.13 0.1 399.46-0.3 399.05-0.99 398.63-1.68 398.63-2.5L398.63-2.5Q398.63-3.33 399.05-4.01 399.46-4.7 400.13-5.11 400.81-5.53 401.63-5.53L401.63-5.53Q402.46-5.53 403.14-5.11 403.83-4.7 404.23-4.01 404.63-3.33 404.63-2.5L404.63-2.5Q404.63-1.68 404.23-0.99 403.83-0.3 403.14 0.1 402.46 0.5 401.63 0.5ZM408.43-23L416.08-23 416.08-0.98 419.31-0.98 419.31 0 408.43 0 408.43-0.98 411.71-0.98 411.71-22.03 408.43-22.03 408.43-23ZM431.33-15.98L431.33-15.98 431.33-0.98 434.61-0.98 434.61 0 423.68 0 423.68-0.98 426.93-0.98 426.93-15.23Q426.93-17.32 426.74-18.91 426.56-20.5 425.91-21.39 425.25-22.28 423.88-22.28L423.88-22.28Q421.86-22.28 420.38-21.18 418.91-20.08 417.96-18.36 417-16.65 416.54-14.74 416.08-12.83 416.08-11.23L416.08-11.23 415.46-11.1Q415.46-12.75 415.89-14.86 416.33-16.98 417.36-18.95 418.38-20.93 420.13-22.2 421.88-23.48 424.53-23.48L424.53-23.48Q427.41-23.48 428.87-22.5 430.33-21.53 430.83-19.84 431.33-18.15 431.33-15.98ZM457.88 0L437.98 0 437.98-0.98 451.83-22.03 447.18-22.03Q444.33-22.03 442.85-21.18 441.38-20.33 440.87-18.63 440.35-16.93 440.35-14.4L440.35-14.4 439.38-14.4 439.38-23 457.08-23 457.08-22.03 443.18-0.98 448.93-0.98Q451.48-0.98 453.06-1.39 454.65-1.8 455.49-2.75 456.33-3.7 456.63-5.29 456.93-6.88 456.93-9.2L456.93-9.2 457.88-9.2 457.88 0Z" opacity="1" transform="matrix(1,0,0,1,0,0)" fill="#ffffff" class="wordmark-text-0" data-fill-palette-color="quaternary" id="text-0"></path></svg></g></svg></g></svg></g></svg></g><g transform="matrix(1,0,0,1,83.98154723714285,0)"><svg viewBox="0 0 45.19534675287143 25.108525973817464" height="25.108525973817464" width="45.19534675287143"><g><svg xmlns="http://www.w3.org/2000/svg" xmlns:xlink="http://www.w3.org/1999/xlink" version="1.1" x="0" y="0" viewBox="13 25 54 30" enable-background="new 0 0 80 80" xml:space="preserve" height="25.108525973817464" width="45.19534675287143" class="icon-icon-0" data-fill-palette-color="quaternary" id="icon-0"><g fill="#ffffff" data-fill-palette-color="quaternary"><path d="M65.6 40C66.4 39.3 67 38.2 67 37 67 35.9 66.1 35 65 35 64.3 35 63.6 35.2 63 35.5V32C63 31.4 62.6 31 62 31H59V26C59 25.4 58.6 25 58 25H54C53.4 25 53 25.4 53 26V37H27V26C27 25.4 26.6 25 26 25H22C21.4 25 21 25.4 21 26V31H18C17.4 31 17 31.4 17 32V35.5C16.4 35.2 15.7 35 15 35 13.9 35 13 35.9 13 37 13 38.2 13.5 39.3 14.4 40 13.6 40.7 13 41.8 13 43 13 44.1 13.9 45 15 45 15.7 45 16.4 44.8 17 44.5V48C17 48.6 17.4 49 18 49H21V54C21 54.6 21.4 55 22 55H26C26.6 55 27 54.6 27 54V43H53V54C53 54.6 53.4 55 54 55H58C58.6 55 59 54.6 59 54V49H62C62.6 49 63 48.6 63 48V44.5C63.6 44.8 64.3 45 65 45 66.1 45 67 44.1 67 43 67 41.8 66.5 40.7 65.6 40M65 37C65 38.1 64.1 39 63 39 63 37.9 63.9 37 65 37M44.6 41L45.6 39H47.4L46.4 41zM40.6 41L41.6 39H43.4L42.4 41zM36.6 41L37.6 39H39.4L38.4 41zM32.6 41L33.6 39H35.4L34.4 41zM15 37C16.1 37 17 37.9 17 39 15.9 39 15 38.1 15 37M15 43C15 41.9 15.9 41 17 41 17 42.1 16.1 43 15 43M19 47V33H21V47zM25 53H23V27H25zM27 39H31.4L30.4 41H27zM48.6 41L49.6 39H53V41zM57 53H55V27H57zM61 47H59V33H61zM65 43C63.9 43 63 42.1 63 41 64.1 41 65 41.9 65 43" fill="#ffffff" data-fill-palette-color="quaternary"></path></g></svg></g></svg></g><g></g></svg></g></svg></g></svg></g></svg></g><defs></defs></svg><rect width="342.85155851775386" height="342.85155851775386" fill="none" stroke="none" visibility="hidden"></rect></g></svg></g></svg>