<svg xmlns="http://www.w3.org/2000/svg" version="1.1" xmlns:xlink="http://www.w3.org/1999/xlink" xmlns:svgjs="http://svgjs.dev/svgjs" width="2000" height="1999" viewBox="0 0 2000 1999"><g transform="matrix(1,0,0,1,-0.431486880466764,-0.4312711370263287)"><svg viewBox="0 0 343 343" data-background-color="#ffffff" preserveAspectRatio="xMidYMid meet" height="1999" width="2000" xmlns="http://www.w3.org/2000/svg" xmlns:xlink="http://www.w3.org/1999/xlink"><g id="tight-bounds" transform="matrix(1,0,0,1,0.0740000000000407,0.07400000000001228)"><svg viewBox="0 0 342.85155851775386 342.85155851775386" height="342.85155851775386" width="342.85155851775386"><g><svg></svg></g><g><svg viewBox="0 0 342.85155851775386 342.85155851775386" height="342.85155851775386" width="342.85155851775386"><g><path d="M0 171.426c0-94.676 76.75-171.426 171.426-171.426 94.676 0 171.426 76.75 171.426 171.426 0 94.676-76.75 171.426-171.426 171.426-94.676 0-171.426-76.75-171.426-171.426zM171.426 341.289c93.813 0 169.864-76.05 169.863-169.863 0-93.813-76.05-169.864-169.863-169.864-93.813 0-169.864 76.05-169.864 169.864 0 93.813 76.05 169.864 169.864 169.863z" data-fill-palette-color="tertiary" fill="#31302e" stroke="transparent"></path><ellipse rx="164.56874808852186" ry="164.56874808852186" cx="171.42577925887693" cy="171.42577925887693" fill="#31302e" stroke="transparent" stroke-width="0" fill-opacity="1" data-fill-palette-color="tertiary"></ellipse></g><g transform="matrix(1,0,0,1,64.84655864529837,148.74883250354378)"><svg viewBox="0 0 213.1584412271571 45.353893510666325" height="45.353893510666325" width="213.1584412271571"><g><svg viewBox="0 0 213.1584412271571 45.353893510666325" height="45.353893510666325" width="213.1584412271571"><g><svg viewBox="0 0 213.1584412271571 45.353893510666325" height="45.353893510666325" width="213.1584412271571"><g transform="matrix(1,0,0,1,0,28.030525697559938)"><svg viewBox="0 0 213.1584412271571 17.32336781310639" height="17.32336781310639" width="213.1584412271571"><g id="textblocktransform"><svg viewBox="0 0 213.1584412271571 17.32336781310639" height="17.32336781310639" width="213.1584412271571" id="textblock"><g><svg viewBox="0 0 213.1584412271571 17.32336781310639" height="17.32336781310639" width="213.1584412271571"><g transform="matrix(1,0,0,1,0,0)"><svg width="213.1584412271571" viewBox="4 -35.01 436.74 35.5" height="17.32336781310639" data-palette-color="#ffffff"><path d="M23.71-22.05L23.71-22.05Q23.71-20.26 23.03-18.7 22.36-17.14 21.19-15.97 20.02-14.79 18.44-14.12 16.87-13.45 15.09-13.45L15.09-13.45 7.15-13.45 7.15 0 4 0 4-35.01 15.09-35.01Q16.87-35.01 18.44-34.34 20.02-33.67 21.19-32.5 22.36-31.32 23.03-29.75 23.71-28.17 23.71-26.39L23.71-26.39 23.71-22.05ZM20.56-22.05L20.56-26.39Q20.56-27.56 20.12-28.58 19.68-29.59 18.91-30.36 18.14-31.13 17.13-31.57 16.11-32.01 14.94-32.01L14.94-32.01 7.15-32.01 7.15-16.46 14.94-16.46Q16.11-16.46 17.13-16.89 18.14-17.33 18.91-18.09 19.68-18.85 20.12-19.86 20.56-20.87 20.56-22.05L20.56-22.05ZM45.41 0L44.41 0 42.75-2.49Q41.72-1.15 40.18-0.33 38.64 0.49 36.81 0.49L36.81 0.49 36.06 0.49Q34.54 0.49 33.2-0.09 31.86-0.66 30.86-1.66 29.86-2.66 29.28-4 28.71-5.35 28.71-6.86L28.71-6.86 28.71-7.1Q28.71-8.62 29.28-9.96 29.86-11.3 30.86-12.3 31.86-13.31 33.2-13.88 34.54-14.45 36.06-14.45L36.06-14.45 42.4-14.45 42.4-18.31Q42.4-19.21 42.06-20.01 41.72-20.8 41.14-21.39 40.55-21.97 39.76-22.31 38.96-22.66 38.06-22.66L38.06-22.66 36.3-22.66Q35.4-22.66 34.6-22.31 33.81-21.97 33.23-21.39 32.64-20.8 32.3-20.01 31.96-19.21 31.96-18.31L31.96-18.31 31.96-17.41 28.95-17.9 28.95-18.14Q28.95-19.65 29.53-21 30.1-22.34 31.1-23.34 32.1-24.34 33.44-24.91 34.79-25.49 36.3-25.49L36.3-25.49 38.06-25.49Q39.57-25.49 40.92-24.91 42.26-24.34 43.26-23.34 44.26-22.34 44.83-21 45.41-19.65 45.41-18.14L45.41-18.14 45.41 0ZM42.4-6.69L42.4-12.11 36.06-12.11Q35.15-12.11 34.36-11.77 33.57-11.43 32.98-10.83 32.39-10.23 32.05-9.44 31.71-8.64 31.71-7.74L31.71-7.74 31.71-6.69Q31.71-5.79 32.05-4.99 32.39-4.2 32.98-3.61 33.57-3.03 34.36-2.69 35.15-2.34 36.06-2.34L36.06-2.34 38.06-2.34Q38.96-2.34 39.76-2.69 40.55-3.03 41.14-3.61 41.72-4.2 42.06-4.99 42.4-5.79 42.4-6.69L42.4-6.69ZM68.6-6.35L68.6-6.35Q68.6-4.83 67.99-3.58 67.38-2.32 66.33-1.42 65.28-0.51 63.9-0.01 62.52 0.49 61.01 0.49L61.01 0.49 59 0.49Q57.49 0.49 56.11-0.09 54.73-0.66 53.69-1.66 52.66-2.66 52.03-4 51.41-5.35 51.41-6.86L51.41-6.86 51.41-7.86 54.41-8.35 54.41-6.69Q54.41-5.79 54.79-4.99 55.17-4.2 55.81-3.61 56.44-3.03 57.27-2.69 58.1-2.34 59-2.34L59-2.34 61.01-2.34Q61.91-2.34 62.74-2.61 63.57-2.88 64.22-3.38 64.86-3.88 65.24-4.59 65.62-5.3 65.62-6.2L65.62-6.2Q65.62-7.54 65.03-8.4 64.45-9.25 63.48-9.83 62.52-10.4 61.29-10.78 60.05-11.16 58.76-11.54 57.47-11.91 56.23-12.4 55-12.89 54.04-13.68 53.07-14.48 52.49-15.67 51.9-16.87 51.9-18.65L51.9-18.65Q51.9-20.17 52.49-21.42 53.07-22.68 54.07-23.58 55.07-24.49 56.4-24.99 57.73-25.49 59.25-25.49L59.25-25.49 61.01-25.49Q62.52-25.49 63.86-24.91 65.2-24.34 66.21-23.34 67.21-22.34 67.78-21 68.35-19.65 68.35-18.14L68.35-18.14 68.35-18.04 65.35-17.55 65.35-18.31Q65.35-19.21 65.01-20.01 64.67-20.8 64.08-21.39 63.5-21.97 62.7-22.31 61.91-22.66 61.01-22.66L61.01-22.66 59.25-22.66Q58.34-22.66 57.55-22.39 56.76-22.12 56.17-21.62 55.59-21.12 55.24-20.41 54.9-19.7 54.9-18.8L54.9-18.8Q54.9-17.5 55.49-16.69 56.07-15.87 57.04-15.31 58-14.75 59.24-14.37 60.47-13.99 61.75-13.59 63.03-13.18 64.27-12.67 65.5-12.16 66.46-11.35 67.43-10.55 68.01-9.34 68.6-8.13 68.6-6.35ZM91.55-6.35L91.55-6.35Q91.55-4.83 90.93-3.58 90.32-2.32 89.27-1.42 88.22-0.51 86.85-0.01 85.47 0.49 83.95 0.49L83.95 0.49 81.95 0.49Q80.44 0.49 79.06-0.09 77.68-0.66 76.64-1.66 75.6-2.66 74.98-4 74.36-5.35 74.36-6.86L74.36-6.86 74.36-7.86 77.36-8.35 77.36-6.69Q77.36-5.79 77.74-4.99 78.12-4.2 78.75-3.61 79.39-3.03 80.22-2.69 81.05-2.34 81.95-2.34L81.95-2.34 83.95-2.34Q84.86-2.34 85.69-2.61 86.52-2.88 87.16-3.38 87.81-3.88 88.19-4.59 88.57-5.3 88.57-6.2L88.57-6.2Q88.57-7.54 87.98-8.4 87.39-9.25 86.43-9.83 85.47-10.4 84.23-10.78 83-11.16 81.71-11.54 80.41-11.91 79.18-12.4 77.95-12.89 76.98-13.68 76.02-14.48 75.43-15.67 74.85-16.87 74.85-18.65L74.85-18.65Q74.85-20.17 75.43-21.42 76.02-22.68 77.02-23.58 78.02-24.49 79.35-24.99 80.68-25.49 82.19-25.49L82.19-25.49 83.95-25.49Q85.47-25.49 86.81-24.91 88.15-24.34 89.15-23.34 90.15-22.34 90.73-21 91.3-19.65 91.3-18.14L91.3-18.14 91.3-18.04 88.3-17.55 88.3-18.31Q88.3-19.21 87.96-20.01 87.61-20.8 87.03-21.39 86.44-21.97 85.65-22.31 84.86-22.66 83.95-22.66L83.95-22.66 82.19-22.66Q81.29-22.66 80.5-22.39 79.7-22.12 79.12-21.62 78.53-21.12 78.19-20.41 77.85-19.7 77.85-18.8L77.85-18.8Q77.85-17.5 78.43-16.69 79.02-15.87 79.99-15.31 80.95-14.75 82.18-14.37 83.42-13.99 84.7-13.59 85.98-13.18 87.21-12.67 88.44-12.16 89.41-11.35 90.37-10.55 90.96-9.34 91.55-8.13 91.55-6.35ZM101.55-31.01L98.06-31.01 98.06-35.01 101.55-35.01 101.55-31.01ZM101.31 0L98.31 0 98.31-25 101.31-25 101.31 0ZM125.01-6.86L125.01-6.86Q125.01-5.35 124.44-4 123.86-2.66 122.86-1.66 121.86-0.66 120.52-0.09 119.18 0.49 117.66 0.49L117.66 0.49 115.66 0.49Q114.15 0.49 112.8-0.09 111.46-0.66 110.46-1.66 109.46-2.66 108.89-4 108.31-5.35 108.31-6.86L108.31-6.86 108.31-18.14Q108.31-19.65 108.89-21 109.46-22.34 110.46-23.34 111.46-24.34 112.8-24.91 114.15-25.49 115.66-25.49L115.66-25.49 117.66-25.49Q119.18-25.49 120.52-24.91 121.86-24.34 122.86-23.34 123.86-22.34 124.44-21 125.01-19.65 125.01-18.14L125.01-18.14 125.01-6.86ZM122.01-6.69L122.01-18.31Q122.01-19.21 121.67-20.01 121.33-20.8 120.74-21.39 120.15-21.97 119.36-22.31 118.57-22.66 117.66-22.66L117.66-22.66 115.66-22.66Q114.76-22.66 113.96-22.31 113.17-21.97 112.59-21.39 112-20.8 111.66-20.01 111.32-19.21 111.32-18.31L111.32-18.31 111.32-6.69Q111.32-5.79 111.66-4.99 112-4.2 112.59-3.61 113.17-3.03 113.96-2.69 114.76-2.34 115.66-2.34L115.66-2.34 117.66-2.34Q118.57-2.34 119.36-2.69 120.15-3.03 120.74-3.61 121.33-4.2 121.67-4.99 122.01-5.79 122.01-6.69L122.01-6.69ZM147.71 0L144.71 0 144.71-18.31Q144.71-19.21 144.37-20.01 144.03-20.8 143.44-21.39 142.86-21.97 142.06-22.31 141.27-22.66 140.37-22.66L140.37-22.66 138.36-22.66Q137.46-22.66 136.67-22.31 135.87-21.97 135.29-21.39 134.7-20.8 134.36-20.01 134.02-19.21 134.02-18.31L134.02-18.31 134.02 0 131.02 0 131.02-25 132.02-25 133.65-22.46Q134.68-23.85 136.23-24.67 137.78-25.49 139.61-25.49L139.61-25.49 140.37-25.49Q141.88-25.49 143.22-24.91 144.57-24.34 145.57-23.34 146.57-22.34 147.14-21 147.71-19.65 147.71-18.14L147.71-18.14 147.71 0ZM185.92-32.01L169.36-32.01 169.36-18.99 182.77-18.99 182.77-15.99 169.36-15.99 169.36 0 166.22 0 166.22-35.01 185.92-35.01 185.92-32.01ZM206.62-6.86L206.62-6.86Q206.62-5.35 206.04-4 205.47-2.66 204.47-1.66 203.47-0.66 202.13-0.09 200.78 0.49 199.27 0.49L199.27 0.49 197.27 0.49Q195.75 0.49 194.41-0.09 193.07-0.66 192.07-1.66 191.07-2.66 190.49-4 189.92-5.35 189.92-6.86L189.92-6.86 189.92-18.14Q189.92-19.65 190.49-21 191.07-22.34 192.07-23.34 193.07-24.34 194.41-24.91 195.75-25.49 197.27-25.49L197.27-25.49 199.27-25.49Q200.78-25.49 202.13-24.91 203.47-24.34 204.47-23.34 205.47-22.34 206.04-21 206.62-19.65 206.62-18.14L206.62-18.14 206.62-6.86ZM203.62-6.69L203.62-18.31Q203.62-19.21 203.27-20.01 202.93-20.8 202.35-21.39 201.76-21.97 200.97-22.31 200.17-22.66 199.27-22.66L199.27-22.66 197.27-22.66Q196.36-22.66 195.57-22.31 194.78-21.97 194.19-21.39 193.61-20.8 193.26-20.01 192.92-19.21 192.92-18.31L192.92-18.31 192.92-6.69Q192.92-5.79 193.26-4.99 193.61-4.2 194.19-3.61 194.78-3.03 195.57-2.69 196.36-2.34 197.27-2.34L197.27-2.34 199.27-2.34Q200.17-2.34 200.97-2.69 201.76-3.03 202.35-3.61 202.93-4.2 203.27-4.99 203.62-5.79 203.62-6.69L203.62-6.69ZM222.97-22.14L219.97-22.14Q219.07-22.14 218.27-21.8 217.48-21.46 216.89-20.87 216.31-20.29 215.97-19.49 215.62-18.7 215.62-17.8L215.62-17.8 215.62 0 212.62 0 212.62-25 213.62-25 215.26-22.46Q216.28-23.85 217.83-24.67 219.38-25.49 221.22-25.49L221.22-25.49 222.97-25.49 222.97-22.14ZM259.17-32.01L242.62-32.01 242.62-18.99 256.02-18.99 256.02-15.99 242.62-15.99 242.62 0 239.47 0 239.47-35.01 259.17-35.01 259.17-32.01ZM267.42-31.01L263.93-31.01 263.93-35.01 267.42-35.01 267.42-31.01ZM267.18 0L264.18 0 264.18-25 267.18-25 267.18 0ZM286.02 0L283.29 0Q281.92 0 280.71-0.51 279.51-1.03 278.61-1.93 277.72-2.83 277.2-4.03 276.67-5.22 276.67-6.59L276.67-6.59 276.67-22.14 272.18-22.14 272.18-25 276.67-25 276.67-31.01 279.68-31.49 279.68-25 286.02-25 286.02-22.14 279.68-22.14 279.68-6.45Q279.68-5.69 279.96-5.04 280.24-4.39 280.73-3.91 281.22-3.42 281.87-3.14 282.53-2.86 283.29-2.86L283.29-2.86 286.02-2.86 286.02 0ZM308.24 0L305.24 0 305.24-18.31Q305.24-19.21 304.89-20.01 304.55-20.8 303.97-21.39 303.38-21.97 302.59-22.31 301.79-22.66 300.89-22.66L300.89-22.66 298.89-22.66Q297.98-22.66 297.19-22.31 296.4-21.97 295.81-21.39 295.23-20.8 294.88-20.01 294.54-19.21 294.54-18.31L294.54-18.31 294.54 0 291.54 0 291.54-25 292.54-25 294.18-22.46Q295.2-23.85 296.75-24.67 298.3-25.49 300.13-25.49L300.13-25.49 300.89-25.49Q302.4-25.49 303.75-24.91 305.09-24.34 306.09-23.34 307.09-22.34 307.67-21 308.24-19.65 308.24-18.14L308.24-18.14 308.24 0ZM330.94-6.86L330.94-6.86Q330.94-5.35 330.37-4 329.79-2.66 328.79-1.66 327.79-0.66 326.45-0.09 325.11 0.49 323.59 0.49L323.59 0.49 321.59 0.49Q320.08 0.49 318.73-0.09 317.39-0.66 316.39-1.66 315.39-2.66 314.82-4 314.24-5.35 314.24-6.86L314.24-6.86 314.24-18.14Q314.24-19.65 314.82-21 315.39-22.34 316.39-23.34 317.39-24.34 318.73-24.91 320.08-25.49 321.59-25.49L321.59-25.49 323.59-25.49Q325.11-25.49 326.45-24.91 327.79-24.34 328.79-23.34 329.79-22.34 330.37-21 330.94-19.65 330.94-18.14L330.94-18.14 330.94-12.26 317.25-12.26 317.25-6.69Q317.25-5.79 317.59-4.99 317.93-4.2 318.51-3.61 319.1-3.03 319.89-2.69 320.69-2.34 321.59-2.34L321.59-2.34 323.59-2.34Q324.5-2.34 325.29-2.69 326.08-3.03 326.67-3.61 327.25-4.2 327.6-4.99 327.94-5.79 327.94-6.69L327.94-6.69 327.94-8.35 330.94-7.86 330.94-6.86ZM327.94-14.6L327.94-18.31Q327.94-19.21 327.6-20.01 327.25-20.8 326.67-21.39 326.08-21.97 325.29-22.31 324.5-22.66 323.59-22.66L323.59-22.66 321.59-22.66Q320.69-22.66 319.89-22.31 319.1-21.97 318.51-21.39 317.93-20.8 317.59-20.01 317.25-19.21 317.25-18.31L317.25-18.31 317.25-14.6 327.94-14.6ZM354.13-6.35L354.13-6.35Q354.13-4.83 353.52-3.58 352.91-2.32 351.86-1.42 350.81-0.51 349.43-0.01 348.05 0.49 346.54 0.49L346.54 0.49 344.54 0.49Q343.02 0.49 341.64-0.09 340.27-0.66 339.23-1.66 338.19-2.66 337.57-4 336.94-5.35 336.94-6.86L336.94-6.86 336.94-7.86 339.95-8.35 339.95-6.69Q339.95-5.79 340.33-4.99 340.7-4.2 341.34-3.61 341.97-3.03 342.8-2.69 343.63-2.34 344.54-2.34L344.54-2.34 346.54-2.34Q347.44-2.34 348.27-2.61 349.1-2.88 349.75-3.38 350.4-3.88 350.78-4.59 351.15-5.3 351.15-6.2L351.15-6.2Q351.15-7.54 350.57-8.4 349.98-9.25 349.02-9.83 348.05-10.4 346.82-10.78 345.59-11.16 344.29-11.54 343-11.91 341.77-12.4 340.53-12.89 339.57-13.68 338.6-14.48 338.02-15.67 337.43-16.87 337.43-18.65L337.43-18.65Q337.43-20.17 338.02-21.42 338.6-22.68 339.61-23.58 340.61-24.49 341.94-24.99 343.27-25.49 344.78-25.49L344.78-25.49 346.54-25.49Q348.05-25.49 349.4-24.91 350.74-24.34 351.74-23.34 352.74-22.34 353.31-21 353.89-19.65 353.89-18.14L353.89-18.14 353.89-18.04 350.89-17.55 350.89-18.31Q350.89-19.21 350.54-20.01 350.2-20.8 349.62-21.39 349.03-21.97 348.24-22.31 347.44-22.66 346.54-22.66L346.54-22.66 344.78-22.66Q343.88-22.66 343.08-22.39 342.29-22.12 341.71-21.62 341.12-21.12 340.78-20.41 340.44-19.7 340.44-18.8L340.44-18.8Q340.44-17.5 341.02-16.69 341.61-15.87 342.57-15.31 343.54-14.75 344.77-14.37 346-13.99 347.28-13.59 348.57-13.18 349.8-12.67 351.03-12.16 352-11.35 352.96-10.55 353.55-9.34 354.13-8.13 354.13-6.35ZM377.08-6.35L377.08-6.35Q377.08-4.83 376.47-3.58 375.86-2.32 374.81-1.42 373.76-0.51 372.38-0.01 371 0.49 369.49 0.49L369.49 0.49 367.48 0.49Q365.97 0.49 364.59-0.09 363.21-0.66 362.17-1.66 361.14-2.66 360.51-4 359.89-5.35 359.89-6.86L359.89-6.86 359.89-7.86 362.89-8.35 362.89-6.69Q362.89-5.79 363.27-4.99 363.65-4.2 364.29-3.61 364.92-3.03 365.75-2.69 366.58-2.34 367.48-2.34L367.48-2.34 369.49-2.34Q370.39-2.34 371.22-2.61 372.05-2.88 372.7-3.38 373.34-3.88 373.72-4.59 374.1-5.3 374.1-6.2L374.1-6.2Q374.1-7.54 373.51-8.4 372.93-9.25 371.96-9.83 371-10.4 369.77-10.78 368.53-11.16 367.24-11.54 365.95-11.91 364.71-12.4 363.48-12.89 362.52-13.68 361.55-14.48 360.97-15.67 360.38-16.87 360.38-18.65L360.38-18.65Q360.38-20.17 360.97-21.42 361.55-22.68 362.55-23.58 363.55-24.49 364.88-24.99 366.21-25.49 367.73-25.49L367.73-25.49 369.49-25.49Q371-25.49 372.34-24.91 373.69-24.34 374.69-23.34 375.69-22.34 376.26-21 376.83-19.65 376.83-18.14L376.83-18.14 376.83-18.04 373.83-17.55 373.83-18.31Q373.83-19.21 373.49-20.01 373.15-20.8 372.56-21.39 371.98-21.97 371.18-22.31 370.39-22.66 369.49-22.66L369.49-22.66 367.73-22.66Q366.83-22.66 366.03-22.39 365.24-22.12 364.65-21.62 364.07-21.12 363.72-20.41 363.38-19.7 363.38-18.8L363.38-18.8Q363.38-17.5 363.97-16.69 364.55-15.87 365.52-15.31 366.48-14.75 367.72-14.37 368.95-13.99 370.23-13.59 371.51-13.18 372.75-12.67 373.98-12.16 374.94-11.35 375.91-10.55 376.49-9.34 377.08-8.13 377.08-6.35ZM415.04 0L413.38 0 398.78-25.49 398.49-27 398.49 0 395.34 0 395.34-35.01 396.97-35.01 411.57-9.5 411.89-8.01 411.89-35.01 415.04-35.01 415.04 0ZM440.74 0L421.04 0 421.04-1.49 436.64-32.01 421.53-32.01 421.53-35.01 440.74-35.01 440.74-33.5 425.14-3 440.74-3 440.74 0Z" opacity="1" transform="matrix(1,0,0,1,0,0)" fill="#ffffff" class="wordmark-text-0" data-fill-palette-color="quaternary" id="text-0"></path></svg></g></svg></g></svg></g></svg></g><g transform="matrix(1,0,0,1,85.03241572763682,0)"><svg viewBox="0 0 43.093609771883465 23.940894317713035" height="23.940894317713035" width="43.093609771883465"><g><svg xmlns="http://www.w3.org/2000/svg" xmlns:xlink="http://www.w3.org/1999/xlink" version="1.1" x="0" y="0" viewBox="13 25 54 30" enable-background="new 0 0 80 80" xml:space="preserve" height="23.940894317713035" width="43.093609771883465" class="icon-icon-0" data-fill-palette-color="quaternary" id="icon-0"><g fill="#ffffff" data-fill-palette-color="quaternary"><path d="M65.6 40C66.4 39.3 67 38.2 67 37 67 35.9 66.1 35 65 35 64.3 35 63.6 35.2 63 35.5V32C63 31.4 62.6 31 62 31H59V26C59 25.4 58.6 25 58 25H54C53.4 25 53 25.4 53 26V37H27V26C27 25.4 26.6 25 26 25H22C21.4 25 21 25.4 21 26V31H18C17.4 31 17 31.4 17 32V35.5C16.4 35.2 15.7 35 15 35 13.9 35 13 35.9 13 37 13 38.2 13.5 39.3 14.4 40 13.6 40.7 13 41.8 13 43 13 44.1 13.9 45 15 45 15.7 45 16.4 44.8 17 44.5V48C17 48.6 17.4 49 18 49H21V54C21 54.6 21.4 55 22 55H26C26.6 55 27 54.6 27 54V43H53V54C53 54.6 53.4 55 54 55H58C58.6 55 59 54.6 59 54V49H62C62.6 49 63 48.6 63 48V44.5C63.6 44.8 64.3 45 65 45 66.1 45 67 44.1 67 43 67 41.8 66.5 40.7 65.6 40M65 37C65 38.1 64.1 39 63 39 63 37.9 63.9 37 65 37M44.6 41L45.6 39H47.4L46.4 41zM40.6 41L41.6 39H43.4L42.4 41zM36.6 41L37.6 39H39.4L38.4 41zM32.6 41L33.6 39H35.4L34.4 41zM15 37C16.1 37 17 37.9 17 39 15.9 39 15 38.1 15 37M15 43C15 41.9 15.9 41 17 41 17 42.1 16.1 43 15 43M19 47V33H21V47zM25 53H23V27H25zM27 39H31.4L30.4 41H27zM48.6 41L49.6 39H53V41zM57 53H55V27H57zM61 47H59V33H61zM65 43C63.9 43 63 42.1 63 41 64.1 41 65 41.9 65 43" fill="#ffffff" data-fill-palette-color="quaternary"></path></g></svg></g></svg></g><g></g></svg></g></svg></g></svg></g></svg></g><defs></defs></svg><rect width="342.85155851775386" height="342.85155851775386" fill="none" stroke="none" visibility="hidden"></rect></g></svg></g></svg>