<svg xmlns="http://www.w3.org/2000/svg" height="800" width="800" viewBox="0 0 449.162 449.162" xml:space="preserve" version="1.1" xmlns:xlink="http://www.w3.org/1999/xlink"><g transform="rotate(235, 190, 220)"><path d="m432.519 249.894-27.386-54.958a10 10 0 0 0-12.879-4.736l-27.849 11.896c-3.383-7.177-10.578-11.567-18.794-11.188-9.327.448-16.788 6.908-18.564 16.075-1.084 5.594-1.798 11.747-2.488 17.696-1.299 11.194-2.771 23.881-6.741 30.234-4.404 7.045-6.243 15.519-6.667 23.933-16.053 16.65-44.004 22.562-58.941 20.302-6.902-1.044-16.145-2.957-25.929-4.981-7.358-1.523-15.27-3.159-23.364-4.679 18.96-32.719 18.878-73.831-1.345-106.784l-6.544-10.66c.567-.914 1.133-1.828 1.71-2.751 18.814-30.116 25.632-65.931 19.2-100.843-.259-1.408-.698-3.098-1.343-5.164C203.493 27.719 170.851 2.649 133.37.901L116.107.096C78.794-1.637 44.032 20.131 29.582 54.278c-15.003 35.454-12.595 75.897 6.306 108.996-8.624 15.4-17.979 40.419-19.928 78.167-2.653 51.363 9.132 112.694 35.028 182.291q.145.392.324.771c4.844 10.293 13.767 17.478 26.521 21.356 7.714 2.345 16.348 3.304 25.313 3.304 19.601 0 40.778-4.585 57.342-9.289 29.759-8.451 61.188-21.917 86.227-36.945 57.984-34.787 135.369-77.034 136.144-77.457a10 10 0 0 0 3.289-2.883l45.5-62.34a10 10 0 0 0 .871-10.355m-61.21 59.099c-12.499 6.846-81.739 44.902-134.887 76.787-46.673 28.014-119.197 51.153-152.772 40.943-7.055-2.145-11.666-5.55-14.081-10.403C20.497 284.186 34.78 213.296 49.232 181.219a158 158 0 0 1 5.785 7.724c3.169 4.523 9.405 5.62 13.928 2.451s5.62-9.405 2.451-13.928a179 179 0 0 0-10.229-13.229c-4.038-4.744-5.64-7.076-6.235-8.044C37.587 127.99 34.995 92.806 48 62.073c11.202-26.47 38.212-43.351 67.175-41.997l17.263.805c29.115 1.358 54.458 20.794 63.065 48.364.54 1.73.714 2.549.765 2.825 5.526 29.992-.331 60.756-16.492 86.626-6.679 10.69-12.735 20.819-18.002 30.104-2.725 4.804-1.04 10.907 3.764 13.632a10 10 0 0 0 13.633-3.764 675 675 0 0 1 4.229-7.34l1.128 1.838c17.705 28.85 16.295 65.432-3.078 92.749-11.297-1.583-22.331-2.559-32.112-2.298-5.521.147-9.877 4.742-9.73 10.263s4.759 9.887 10.263 9.73c20.673-.56 49.336 5.377 72.357 10.142 10.493 2.172 19.555 4.047 26.992 5.172 2.829.428 6.01.653 9.449.653 15.813 0 37.067-4.763 54.465-16.47 1.447 7.466 3.196 12.958 3.677 14.399 1.396 4.188 5.294 6.835 9.479 6.835a10 10 0 0 0 3.155-.513c5.237-1.739 8.074-7.396 6.342-12.636-.026-.082-2.729-8.326-4.03-18.48-1.534-11.968-.462-21.627 3.021-27.198 6.358-10.174 8.03-24.589 9.647-38.529.648-5.584 1.262-10.873 2.138-15.567 7.687 26.972.627 60.464.555 60.802-1.168 5.394 2.255 10.714 7.649 11.887 5.396 1.169 10.723-2.25 11.896-7.647.108-.499.972-4.56 1.813-10.885l18.951-14.47c4.39-3.352 5.231-9.627 1.88-14.017-3.352-4.388-9.626-5.232-14.017-1.879l-5.147 3.93c-.053-5.543-.389-11.372-1.145-17.254l22.442-9.586 20.467 41.074z"></path></g></svg>